<svg xmlns="http://www.w3.org/2000/svg" viewBox="0 0 241.13 232.2"><defs><linearGradient id="linear-gradient" x1="3.51" x2="237.62" y1="233.16" y2="-.95" gradientUnits="userSpaceOnUse"><stop offset="0" stop-color="#9a87fe"/><stop offset=".14" stop-color="#9387fd"/><stop offset=".15" stop-color="#8d87fc"/><stop offset=".21" stop-color="#8287fa"/><stop offset=".28" stop-color="#6486f4"/><stop offset=".38" stop-color="#4b86ef"/><stop offset=".44" stop-color="#4286ed"/><stop offset=".69" stop-color="#4286ed"/><stop offset=".82" stop-color="#22bacf"/><stop offset=".94" stop-color="#09e1b8"/><stop offset="1" stop-color="#00f0af"/></linearGradient><linearGradient id="linear-gradient-2" x1="506.78" x2="503.79" y1="1186.57" y2="1110.53" gradientTransform="rotate(2.83 21280.376 -8428.803)" gradientUnits="userSpaceOnUse"><stop offset=".01" stop-color="#bbb" stop-opacity="0"/><stop offset=".46" stop-color="#979797" stop-opacity=".42"/><stop offset="1" stop-color="#666"/></linearGradient><linearGradient id="linear-gradient-3" x1="1819.11" x2="1798.8" y1="-8551.55" y2="-8612.54" gradientTransform="rotate(-116.59 3687.5 -3695.33)" gradientUnits="userSpaceOnUse"><stop offset=".17" stop-color="#bbb" stop-opacity="0"/><stop offset=".34" stop-color="#afafaf" stop-opacity=".12"/><stop offset=".67" stop-color="#909090" stop-opacity=".45"/><stop offset="1" stop-color="#6b6b6b" stop-opacity=".84"/></linearGradient><linearGradient id="linear-gradient-4" x1="9522.61" x2="9498.15" y1="-2060.01" y2="-2119.71" gradientTransform="rotate(122.39 4239.497 -3590.729)" gradientUnits="userSpaceOnUse"><stop offset=".2" stop-color="#bbb" stop-opacity="0"/><stop offset=".51" stop-color="#9c9c9c" stop-opacity=".37"/><stop offset="1" stop-color="#666"/></linearGradient><style>.cls-2{fill:#fff}</style></defs><g id="Layer_2" data-name="Layer 2"><g id="Layer_1-2" data-name="Layer 1"><rect width="241.13" height="232.2" rx="4.37" style="fill:url(#linear-gradient)"/><path d="M124.8 30.33a85.87 85.87 0 1 0 81.54 90 85.88 85.88 0 0 0-81.54-90Zm47.63 100.93c-7.28 24.4-24.11 46.16-36.73 49.2s-37.15-8.9-54.76-27.31S52.87 110 57.1 96.85c3.68-11.46 25.78-28 50.47-34s52-1.29 60.6 7.28c9.32 9.26 11.6 36.53 4.26 61.13Z" class="cls-2"/><path d="M76.41 148.08a102.62 102.62 0 0 1-14.9-23.53 54.91 54.91 0 0 1-2.94-7.63.93.93 0 0 1 0-.13c-2.46-7.72-3.07-14.73-1.43-19.94C59 91 65 85.57 65 85.54c-12.71 12.19-24.37 33.52-26.54 55.77l38 6.83Z" style="fill:url(#linear-gradient-2)"/><path d="M170.2 138.66v-.8c-3.62 10.36-17.9 38.77-35 42.7-3.6.83-8.32.17-13-1 0 0 2.34.62 2.32.65 16.86 5.21 37.72 4 58.35-5.07Z" style="fill:url(#linear-gradient-3)"/><path d="m139.38 32.72-24.72 28.71a98.28 98.28 0 0 1 36 .82h.13c8 1.9 14.47 4.47 18.05 8.59 2.31 2.67 3.93 5.73 5.62 11.54-4.61-16.8-17.23-37.1-35.08-49.66Z" style="fill:url(#linear-gradient-4)"/><path d="M103.92 115.26a5.68 5.68 0 0 1 4.27 5.64c0 4.2-3.35 6.69-9.15 6.69-5.4 0-8.47-2.66-8.47-5a2.5 2.5 0 0 1 3-2.39c.72 2.32 2.76 3.52 5.46 3.52s4.37-1.2 4.37-3.14-1.29-3-3.92-3h-1.2c-1.67 0-2.35-.62-2.35-1.71v-.27c0-1.16.78-1.71 2.29-1.71h1.64c2 0 3.14-1 3.14-2.56s-1.51-2.8-4-2.8a4.9 4.9 0 0 0-5 3.17 2.45 2.45 0 0 1-2.91-2.35c0-2.32 3.08-4.68 7.93-4.68 5.6 0 8.7 2.15 8.7 6 .02 2.27-1.31 3.84-3.8 4.59ZM121.54 113.08c4.44 0 7.41 2.39 7.41 6.62v.18c0 4.54-3.59 7.71-8.74 7.71-6.08 0-9.6-4.13-9.6-10.38v-2c0-6.59 3.79-10.62 9.94-10.62 4.88 0 7.51 2 7.51 4.27 0 2-2.39 2.32-2.46 2.22a5.25 5.25 0 0 0-4.71-2.49c-3.52 0-5.33 2.18-5.33 6.48v.17a9 9 0 0 1 5.98-2.16Zm-1.43 10.72c2.32 0 4-1.43 4-3.58v-.17c0-2.22-1.44-3.45-4-3.45a6.8 6.8 0 0 0-4.47 1.87c.2 3.35 1.77 5.33 4.47 5.33ZM131.2 117.21V115c0-6.39 3.69-10.42 9.7-10.42s9.67 4 9.67 10.38v2.19c0 6.38-3.66 10.41-9.7 10.41s-9.67-3.93-9.67-10.35Zm14.31.31v-2.84c0-3.89-1.67-6-4.64-6s-4.58 2.08-4.58 6v2.83c0 3.9 1.64 6 4.61 6s4.61-2.1 4.61-5.99Z" class="cls-2"/></g></g></svg>