<svg width="132" height="48" viewBox="0 0 132 48" fill="none" xmlns="http://www.w3.org/2000/svg">
<g clip-path="url(#clip0_38_17992)">
<path d="M36.6386 18.0362C35.1358 18.0692 33.3886 19.2122 33.3886 21.0738C33.3886 22.9352 34.3029 23.7521 36.2302 24.4215C38.4838 25.2058 38.6144 25.9241 38.5984 26.724C38.5815 27.3934 38.1079 28.2593 37.0955 28.3083C35.9686 28.3574 35.3155 27.8017 35.2669 26.8713H33.1599C33.2581 28.749 34.924 30.2028 36.8998 30.2028C39.251 30.2028 40.4597 28.6025 40.4921 26.9199C40.5251 25.3855 40.1497 24.1281 37.4384 23.2293C35.8871 22.6743 35.2502 22.2987 35.2502 21.2371C35.2502 20.2738 35.9855 19.7673 36.7362 19.7673C37.4715 19.7673 38.1572 20.2572 38.2223 20.9595H40.2801C40.3124 19.6207 39.1534 17.9872 36.6386 18.0362ZM59.2563 18.0362C57.7533 18.0692 56.0063 19.2122 56.0063 21.0738C56.0063 22.9352 56.9206 23.7521 58.848 24.4215C61.1015 25.2058 61.2321 25.9241 61.2159 26.724C61.1991 27.3934 60.7255 28.2593 59.713 28.3083C58.5863 28.3574 57.9331 27.8017 57.8846 26.8713H55.7776C55.8757 28.749 57.5415 30.2028 59.5173 30.2028C61.8692 30.2028 63.0774 28.6025 63.1098 26.9199C63.1589 25.3855 62.7672 24.1281 60.0562 23.2293C58.5048 22.6743 57.8676 22.2987 57.8676 21.2371C57.8676 20.2738 58.603 19.7673 59.354 19.7673C60.0892 19.7673 60.7746 20.2572 60.8398 20.9595H62.8978C62.9301 19.6207 61.771 17.9872 59.2563 18.0362ZM12.796 18.3794C12.1098 18.3794 10.3465 18.3795 10.0195 18.4448V29.8107C10.3788 29.8759 12.1429 29.8921 12.8942 29.8921C14.7228 29.8921 15.409 29.6801 16.1275 29.0431C16.7154 28.5204 17.0095 27.7203 17.0095 26.724C17.0095 25.026 16.2256 24.2584 15.2131 23.8824V23.834C15.9801 23.4257 16.5681 22.7234 16.5681 21.2865C16.5681 20.3715 16.2741 19.7181 15.7191 19.2445C15.0497 18.6081 14.1349 18.3794 12.9105 18.3794H12.796ZM22.2677 18.3794V29.8107H28.5382V28.178H24.1458L24.0637 28.0959V24.8787L24.1458 24.7975H27.8037V23.1318H24.1458L24.0637 23.0496V20.1105L24.1458 20.0289H28.5382V18.3794H22.2677ZM44.2158 18.3794V20.0289L47.2694 20.0121L47.3513 20.1105V29.8107H49.1477V20.1105L49.229 20.0121L52.2829 20.0289V18.3794H44.2158ZM68.3524 18.3794V29.8107H74.6069V28.161H70.2138L70.1319 28.0798V24.8787L70.2138 24.7975H73.8716V23.1318H70.2138L70.1319 23.0496V20.1105L70.2138 20.0289H74.6069V18.3794H68.3524ZM80.4854 18.3794V29.8107H86.7729V28.178L82.3638 28.161L82.2823 28.0798V18.3794H80.4854ZM91.3292 18.3794V29.8107H97.5999V28.178H93.2068L93.1256 28.0798V18.3794H91.3292ZM102.581 18.3794V29.8107H108.852V28.161H104.458L104.377 28.0798V24.8787L104.458 24.7975H108.117V23.1318H104.458L104.377 23.0496V20.1105L104.458 20.0289H108.852V18.3794H102.581ZM117.376 18.3794C116.674 18.3794 114.943 18.3795 114.616 18.4448V29.8107H116.412V24.9608L116.494 24.8787H117.376C118.193 24.8787 118.487 25.4177 118.846 26.2014C119.335 27.2791 119.564 28.2431 120.022 29.8107H121.982C121.802 29.2065 121.132 27.2139 120.561 25.6626C120.218 24.7484 119.777 24.2417 119.254 24.1111V24.0622C120.201 23.6869 121.23 23.0335 121.28 21.3516C121.312 20.5026 121.115 19.735 120.577 19.2122C119.891 18.559 118.813 18.3794 117.376 18.3794ZM11.8979 20.0121H12.1918H13.0248C14.3804 20.0121 14.7882 20.6822 14.7882 21.4821C14.7882 22.4622 14.3965 23.1155 13.1062 23.1155C13.0738 23.1318 11.8979 23.1318 11.8979 23.1318L11.8158 23.0334V20.0942L11.8979 20.0121ZM116.494 20.0289H117.638C118.96 20.0289 119.434 20.8782 119.434 21.5475C119.434 22.8869 118.552 23.1479 117.654 23.1318H116.494L116.412 23.0496V20.1105L116.494 20.0289ZM11.8979 24.7975H13.0085C14.2658 24.7975 15.1311 25.4014 15.1311 26.5607C15.1311 27.4756 14.7228 28.178 13.1062 28.178H12.3877H11.8979L11.8158 28.0959V24.8787L11.8979 24.7975Z" fill="#0D0F2C"/>
</g>
<defs>
<clipPath id="clip0_38_17992">
<rect width="112" height="12.2362" fill="white" transform="translate(10 18)"/>
</clipPath>
</defs>
</svg>
