<svg width="100" height="30" viewBox="0 0 100 30" fill="none" xmlns="http://www.w3.org/2000/svg">
<g clip-path="url(#clip0_3489_43189)">
<path fill-rule="evenodd" clip-rule="evenodd" d="M29.7133 0.848633L18.6091 29.1505H20.467L31.5712 0.848633H29.7133ZM61.0187 0.848633L49.9358 29.1505H51.7937L62.8766 0.848633H61.0187ZM97.2143 0.848633L86.1313 29.1505H87.9893L99.0723 0.848633H97.2143ZM40.6467 3.36852C36.1623 3.36852 33.13 6.00004 33.13 9.88692C33.13 11.3481 33.6459 12.6142 34.6035 13.6147C35.5294 14.551 36.6629 15.0191 38.7248 15.6347L41.0098 16.322C43.7371 17.1234 45.003 18.4345 45.003 20.3205C45.003 21.5742 44.4819 22.5988 43.4228 23.3819C42.4917 24.0707 41.6085 24.3399 39.8993 24.3399C37.5094 24.3399 35.6669 23.7209 33.7279 22.3614L32.3826 24.6939C34.7734 26.1342 37.0857 26.7972 39.8993 26.7972C42.0177 26.7972 43.5654 26.3574 45.0884 25.402C47.1555 24.1124 48.313 22.074 48.313 19.9457C48.313 18.5186 47.7304 16.9909 46.7755 15.9263C45.8196 14.8617 44.7382 14.2553 42.6968 13.6355L40.0702 12.8233C37.3957 11.9862 36.3759 11.029 36.3759 9.34545C36.3759 7.17959 37.9929 5.82593 40.7963 5.82593C43.0684 5.82593 44.4931 6.55732 46.3911 7.76271L47.7363 5.59685C45.554 4.15406 43.3007 3.36852 40.6467 3.36852ZM66.7203 3.82669V26.3391H69.8167V15.5722H79.5757V26.3391H82.736V3.82669H79.5757V13.0523H69.8167V3.82669H66.7203ZM0.927734 3.86833V26.3807H7.29132C10.7935 26.3807 11.7023 26.19 12.993 25.7143C15.3539 24.8213 16.794 22.5047 16.794 20.1539C16.794 18.4545 16.1858 16.641 14.5945 15.4682C13.8847 14.9259 13.1185 14.5968 11.968 14.3436C14.3801 13.4298 15.7903 11.8462 15.7903 9.55368C15.7903 7.15127 14.1435 5.18784 11.6903 4.36814C10.4637 3.9583 9.29521 3.86834 4.64338 3.86833H0.927734ZM3.96005 6.3674H7.29132C8.48634 6.3674 9.18074 6.43487 9.81113 6.59648C11.3469 6.978 12.3736 8.18005 12.3736 9.92853C12.3736 10.5433 12.2404 10.9323 12.0106 11.4488C11.3571 12.9116 9.9333 13.3647 8.03875 13.3647H3.96005V6.3674ZM3.96005 15.8639H8.10277C9.25509 15.8639 10.1716 15.9822 10.8148 16.1138C12.4044 16.4295 13.5481 17.9672 13.5481 19.9248C13.5481 22.578 12.2473 23.8608 8.95695 23.8608H3.96005V15.8639Z" fill="#2C374F"/>
</g>
<defs>
<clipPath id="clip0_3489_43189">
<rect width="100" height="30" fill="white"/>
</clipPath>
</defs>
</svg>
