<svg width="15" height="15" viewBox="0 0 16 17" fill="none" xmlns="http://www.w3.org/2000/svg">
<path d="M14.1164 6.98846C13.8806 6.74261 13.6368 6.48846 13.5447 6.26575C13.4601 6.06116 13.455 5.72229 13.45 5.39453C13.4408 4.78461 13.4304 4.09332 12.9498 3.61273C12.4692 3.13214 11.7779 3.1217 11.168 3.11249C10.8402 3.10754 10.5013 3.10242 10.2968 3.01776C10.0741 2.92566 9.81989 2.68189 9.57404 2.44611C9.14221 2.03192 8.65265 1.5625 8 1.5625C7.34735 1.5625 6.85785 2.03192 6.42596 2.44611C6.18011 2.68189 5.92596 2.92566 5.70325 3.01776C5.49866 3.10242 5.15979 3.10754 4.83203 3.11249C4.22211 3.1217 3.53082 3.13214 3.05023 3.61273C2.56964 4.09332 2.5592 4.78461 2.54999 5.39453C2.54504 5.72229 2.53992 6.06116 2.45526 6.26575C2.36316 6.4884 2.11939 6.74261 1.88361 6.98846C1.46942 7.42029 1 7.90985 1 8.5625C1 9.21515 1.46942 9.70465 1.88361 10.1365C2.11939 10.3824 2.36316 10.6365 2.45526 10.8593C2.53992 11.0638 2.54504 11.4027 2.54999 11.7305C2.5592 12.3404 2.56964 13.0317 3.05023 13.5123C3.53082 13.9929 4.22211 14.0033 4.83203 14.0125C5.15979 14.0175 5.49866 14.0226 5.70325 14.1072C5.9259 14.1993 6.18011 14.4431 6.42596 14.6789C6.85779 15.0931 7.34735 15.5625 8 15.5625C8.65265 15.5625 9.14215 15.0931 9.57404 14.6789C9.81989 14.4431 10.074 14.1993 10.2968 14.1072C10.5013 14.0226 10.8402 14.0175 11.168 14.0125C11.7779 14.0033 12.4692 13.9929 12.9498 13.5123C13.4304 13.0317 13.4408 12.3404 13.45 11.7305C13.455 11.4027 13.4601 11.0638 13.5447 10.8593C13.6368 10.6366 13.8806 10.3824 14.1164 10.1365C14.5306 9.70471 15 9.21515 15 8.5625C15 7.90985 14.5306 7.42035 14.1164 6.98846ZM11.0952 7.42419L7.42853 10.9242C7.33552 11.013 7.21189 11.0625 7.08331 11.0625C6.95474 11.0625 6.83111 11.013 6.7381 10.9242L4.90479 9.17419C4.85726 9.12887 4.81913 9.07462 4.79257 9.01455C4.76602 8.95449 4.75155 8.88978 4.75001 8.82412C4.74847 8.75846 4.75988 8.69314 4.78358 8.63189C4.80729 8.57065 4.84283 8.51467 4.88817 8.46716C4.93352 8.41965 4.98778 8.38154 5.04786 8.355C5.10793 8.32847 5.17265 8.31403 5.23831 8.31251C5.30397 8.31099 5.36928 8.32242 5.43052 8.34615C5.49176 8.36988 5.54772 8.40544 5.59521 8.45081L7.08331 9.87128L10.4048 6.70081C10.4523 6.65544 10.5082 6.61988 10.5695 6.59615C10.6307 6.57242 10.696 6.56099 10.7617 6.56251C10.8274 6.56403 10.8921 6.57847 10.9521 6.605C11.0122 6.63154 11.0665 6.66965 11.1118 6.71716C11.1572 6.76467 11.1927 6.82065 11.2164 6.88189C11.2401 6.94314 11.2515 7.00846 11.25 7.07412C11.2484 7.13978 11.234 7.20449 11.2074 7.26455C11.1809 7.32462 11.1427 7.37887 11.0952 7.42419Z" fill="white"/>
</svg>
