<svg width="15" height="15" viewBox="0 0 32 32" fill="none" xmlns="http://www.w3.org/2000/svg">
<path d="M30.9138 15.5929C30.8698 15.4941 29.8114 13.1459 27.4571 10.7915C24.3216 7.65564 20.3597 5.99805 16 5.99805C11.6402 5.99805 7.67831 7.65564 4.54282 10.7915C2.18857 13.1459 1.1301 15.4941 1.08615 15.5929C1.02935 15.7208 1 15.8591 1 15.999C1 16.1389 1.02935 16.2773 1.08615 16.4052C1.1301 16.504 2.18869 18.8517 4.54294 21.2057C7.67844 24.3408 11.6402 25.998 16 25.998C20.3597 25.998 24.3215 24.3408 27.457 21.2057C29.8113 18.8517 30.8698 16.504 30.9138 16.4052C30.9706 16.2773 30.9999 16.1389 30.9999 15.999C30.9999 15.8591 30.9706 15.7208 30.9138 15.5929V15.5929ZM16 11.4991C16.89 11.4991 17.76 11.7631 18.5 12.2575C19.2401 12.752 19.8168 13.4548 20.1574 14.2771C20.498 15.0993 20.5871 16.0041 20.4135 16.8771C20.2399 17.75 19.8113 18.5518 19.1819 19.1811C18.5526 19.8105 17.7508 20.239 16.8779 20.4127C16.005 20.5863 15.1002 20.4972 14.2779 20.1566C13.4556 19.816 12.7528 19.2392 12.2584 18.4992C11.7639 17.7592 11.5 16.8892 11.5 15.9991C11.5013 14.8061 11.9759 13.6623 12.8195 12.8186C13.6631 11.975 14.8069 11.5005 16 11.4991V11.4991Z" fill="white"/>
</svg>
