<svg id="Layer_1" data-name="Layer 1" xmlns="http://www.w3.org/2000/svg" viewBox="0 0 2504 757.55"><defs><style>.cls-1{fill:#fff;}</style></defs><path class="cls-1" d="M462.4,26.92V118.2L233.79,263.84a37.31,37.31,0,0,0-17.26,31.46V639.35L40.23,751.61A24.87,24.87,0,0,1,2,730.63V295.31a37.3,37.3,0,0,1,17.27-31.47L424.16,5.94A24.88,24.88,0,0,1,462.4,26.92Z"/><path class="cls-1" d="M216.53,639.35,431,502.73V639.35L254.76,751.61a24.87,24.87,0,0,1-38.23-21Z"/><path class="cls-1" d="M676.86,26.92V118.2L462.4,254.81V118.2L638.62,5.94A24.88,24.88,0,0,1,676.86,26.92Z"/><path class="cls-1" d="M891.39,26.91V462.24a37.3,37.3,0,0,1-17.27,31.47L469.23,751.61a24.87,24.87,0,0,1-38.23-21V639.35L659.6,493.71a37.32,37.32,0,0,0,17.26-31.47v-344L853.16,5.93A24.87,24.87,0,0,1,891.39,26.91Z"/><path class="cls-1" d="M1254.61,169.71c-7.78,27.24-28.85,51.69-76.44,51.69-54.56,0-81.9-37.88-81.9-81.23s30.2-81.65,83.65-81.65c47,0,70,25.86,75,51.83h-33.32c-4.35-11.33-14.12-25.95-42.1-25.95-31.35,0-48.64,23.61-48.64,54.55s16.33,56.72,48.87,56.72c24.54,0,35-9.92,41.8-26Z"/><path class="cls-1" d="M1396.9,161.22c0,33.88-23,60-64.7,60-41.07,0-62.64-28.43-62.64-59.89s22.5-59.86,64-59.86C1376.23,101.43,1396.9,132.47,1396.9,161.22Zm-95.43.07c0,18.88,11,35.82,31.79,35.82,21.45,0,31.42-16.34,31.42-35.36s-10.17-36.26-31.77-36.26S1301.47,142.12,1301.47,161.29Z"/><path class="cls-1" d="M1416.45,133.17c0-9.6,0-20.4-.22-28.65h30.56c.44,3.43.82,11.1,1,16.67,5.12-8.82,16-19.76,38.78-19.76,27.54,0,44.33,17,44.33,46.89v69.76h-31.61V153.46c0-14.79-5.71-27.28-23.42-27.28-18.92,0-27.92,13.64-27.92,35.95v56h-31.47Z"/><path class="cls-1" d="M1549.81,104.52h21.06V70.08h31.46v34.44h27.34v23.16h-27.34V180c0,10.72,2.43,15.59,13.87,15.59a47.8,47.8,0,0,0,10.17-.8v21.81c-5.82,1.77-13.34,2.39-21.13,2.39-26.56,0-34.37-11.62-34.37-33.83V127.68h-21.06Z"/><path class="cls-1" d="M1676.76,168.84c1,16.27,12.47,28.65,31.37,28.65,14.88,0,22.35-5.13,27.11-13.38h31.3c-6.61,19.1-23.36,37.07-59,37.07-44.65,0-62-30.49-62-59.67,0-32.71,21.92-60.08,61.62-60.08,43.85,0,60.84,30.79,60.84,59.77,0,2.57,0,4.45-.15,7.64ZM1736.05,149c-.79-10.19-6.25-25.14-29-25.14-20.25,0-28.54,11.63-29.89,25.14Z"/><path class="cls-1" d="M1788.47,133.17c0-9.6,0-20.4-.23-28.65h30.56c.44,3.43.82,11.1,1,16.67,5.11-8.82,16-19.76,38.78-19.76,27.54,0,44.33,17,44.33,46.89v69.76h-31.62V153.46c0-14.79-5.7-27.28-23.41-27.28-18.92,0-27.92,13.64-27.92,35.95v56h-31.46Z"/><path class="cls-1" d="M1788.46,372.1c0-9.6,0-20.4-.22-28.65h30.56c.44,3.43.82,11.1,1,16.67,5.11-8.82,16-19.77,38.78-19.77,27.54,0,44.33,17,44.33,46.9V457h-31.62V392.39c0-14.79-5.7-27.29-23.41-27.29-18.93,0-27.92,13.64-27.92,35.95v56h-31.47Z"/><path class="cls-1" d="M1920.93,104.52h21V70.08h31.47v34.44h27.33v23.16h-27.33V180c0,10.72,2.43,15.59,13.86,15.59a47.9,47.9,0,0,0,10.18-.8v21.81c-5.83,1.77-13.35,2.39-21.14,2.39-26.56,0-34.37-11.62-34.37-33.83V127.68h-21Z"/><path class="cls-1" d="M1135.24,417.72,1119.51,457h-33.86L1150,300.76h41.59L1258.89,457h-35.54l-16.62-39.29Zm62-26.66c-16-38.17-23.7-57.12-27.39-68.62h-.22c-3.41,11.21-12.48,35.94-25.5,68.62Z"/><path class="cls-1" d="M1381.67,423.93c0,11-.15,22.08.07,33.08h-30.49c-.44-3.1-.58-9.2-.73-15.15-5.69,10.17-14.82,18.24-39,18.24-23.82,0-42.43-13.63-42.43-46.94V343.45h31.31v64.42c0,15.74,5.91,27.41,22.56,27.41,19.65,0,27.38-11.49,27.38-39.71V343.45h31.31Z"/><path class="cls-1" d="M1406.38,343.45h21V309h31.47v34.44h27.34v23.16H1458.9V419c0,10.72,2.43,15.58,13.86,15.58a47.83,47.83,0,0,0,10.18-.79v21.81c-5.82,1.77-13.35,2.39-21.14,2.39-26.55,0-34.37-11.62-34.37-33.83V366.61h-21Z"/><path class="cls-1" d="M1542.43,291.78v67.83c4.23-7,14.23-19.26,39-19.26,27.37,0,44.09,15.95,44.09,48.39V457h-31.62V392.48c0-16-4.83-27.38-22.7-27.38-19.21,0-28.63,14.66-28.63,37V457h-31.31V291.78Z"/><path class="cls-1" d="M1920.93,343.45H1942V309h31.46v34.44h27.33v23.16h-27.33V419c0,10.72,2.43,15.58,13.86,15.58a47.88,47.88,0,0,0,10.18-.79v21.81c-5.82,1.77-13.35,2.39-21.14,2.39-26.56,0-34.36-11.62-34.36-33.83V366.61h-21.06Z"/><path class="cls-1" d="M2025.63,291.78h31.31v27.73h-31.31Zm0,51.67h31.31V457h-31.31Z"/><path class="cls-1" d="M2199.64,419.55c-4.89,21.17-23.16,40.55-58.83,40.55-42.66,0-62-27.41-62-59.91,0-31.21,21.93-59.84,62.13-59.84,42.86,0,56.38,27.78,58.08,41.13h-31.31c-2.69-7.55-9.28-17.28-26.66-17.28-20.27,0-30.33,15-30.33,35.71,0,20,9.55,36.19,30.24,36.19,14.66,0,22.42-5.9,27.37-16.55Z"/><path class="cls-1" d="M2220.27,291.78h31.3v27.73h-31.3Zm0,51.67h31.3V457h-31.3Z"/><path class="cls-1" d="M2274.09,343.45h21V309h31.47v34.44H2354v23.16h-27.34V419c0,10.72,2.43,15.58,13.86,15.58a47.88,47.88,0,0,0,10.18-.79v21.81c-5.82,1.77-13.35,2.39-21.14,2.39-26.55,0-34.37-11.62-34.37-33.83V366.61h-21Z"/><path class="cls-1" d="M2405.56,343.45c21,51.29,30.88,80.11,33.47,88.73h.53c3.34-11.3,13.07-42.16,30.4-88.73h32l-40,100.66c-19.75,50-26.17,64.46-61.71,64.46a107.53,107.53,0,0,1-16.71-1.26V481.58a108.6,108.6,0,0,0,11.75.64c15.44,0,19.73-5.37,27.06-20.61l-51.19-118.16Z"/><path class="cls-1" d="M1138.73,539.69V695.93h-32.81V539.69Z"/><path class="cls-1" d="M1167.79,611c0-9.6,0-20.4-.22-28.65h30.55c.44,3.43.82,11.1,1,16.67,5.11-8.82,15.94-19.77,38.77-19.77,27.54,0,44.34,17,44.34,46.9v69.75h-31.62V631.32c0-14.79-5.71-27.29-23.42-27.29-18.92,0-27.92,13.64-27.92,36v55.95h-31.46Z"/><path class="cls-1" d="M1468.67,530.71H1500v27.73h-31.31Zm0,51.67H1500V695.93h-31.31Z"/><path class="cls-1" d="M1638.15,665.29c0,13.59.66,28.14.95,30.64h-29.63c-.88-3.16-1.17-10.65-1.33-14-6.06,10.43-19.07,17.11-41.27,17.11-31.39,0-43.69-19.09-43.69-36.88,0-29.58,26.19-37.79,59.33-37.79h25V620c0-10.21-4.42-19-23.45-19-17.49,0-21.45,7-23.17,14.74h-31.31c1.08-14.33,11-36.5,54.08-36.5,46.78,0,54.48,22.26,54.48,41.18Zm-30.63-20.6c-2.89-.16-10.66-.16-24.41-.16-20.72,0-29.49,5.11-29.49,16,0,8.62,6.72,15.71,21.58,15.71,23,0,32.32-11.73,32.32-28.82Z"/><path class="cls-1" d="M1656.75,582.38h21.06V547.94h31.46v34.44h27.34v23.16h-27.34V657.9c0,10.72,2.43,15.58,13.87,15.58a47.79,47.79,0,0,0,10.17-.79v21.8c-5.82,1.78-13.34,2.4-21.13,2.4-26.56,0-34.37-11.62-34.37-33.83V605.54h-21.06Z"/><path class="cls-1" d="M1761.46,530.71h31.3v27.73h-31.3Zm0,51.67h31.3V695.93h-31.3Z"/><path class="cls-1" d="M1845,582.38c13.9,38.22,28.34,72.58,32.39,86.06h.37c3.83-12.75,11.6-33.82,32-86.06h31.9l-47.82,113.55h-34.76l-47.78-113.55Z"/><path class="cls-1" d="M1973.77,646.7c1,16.26,12.47,28.64,31.37,28.64,14.89,0,22.36-5.12,27.11-13.37h31.31c-6.62,19.1-23.37,37.06-59,37.06-44.66,0-62-30.49-62-59.66,0-32.72,21.92-60.09,61.62-60.09,43.85,0,60.85,30.79,60.85,59.78,0,2.57,0,4.45-.16,7.64Zm59.3-19.84c-.8-10.19-6.26-25.13-29-25.13-20.26,0-28.55,11.63-29.9,25.13Z"/><path class="cls-1" d="M1310.31,530.71h31.31v27.73h-31.31Zm0,51.67h31.31V695.93h-31.31Z"/><path class="cls-1" d="M1364.13,582.38h21.06V547.94h31.46v34.44H1444v23.16h-27.34V657.9c0,10.72,2.43,15.58,13.87,15.58a47.79,47.79,0,0,0,10.17-.79v21.8c-5.82,1.78-13.35,2.4-21.14,2.4-26.55,0-34.36-11.62-34.36-33.83V605.54h-21.06Z"/><path class="cls-1" d="M1676.76,407.77c1,16.26,12.47,28.64,31.37,28.64,14.88,0,22.35-5.12,27.11-13.37h31.3c-6.61,19.1-23.36,37.06-59,37.06-44.65,0-62-30.48-62-59.66,0-32.72,21.92-60.09,61.62-60.09,43.85,0,60.84,30.8,60.84,59.78,0,2.57,0,4.45-.15,7.64Zm59.29-19.84c-.79-10.19-6.25-25.13-29-25.13-20.25,0-28.54,11.63-29.89,25.13Z"/></svg>