<svg xmlns="http://www.w3.org/2000/svg" width="78" height="78" viewBox="0 0 78 78">
  <g id="Group_209" data-name="Group 209" transform="translate(-0.177 -0.177)">
    <circle id="Ellipse_33" data-name="Ellipse 33" cx="39" cy="39" r="39" transform="translate(0.177 0.177)" fill="#ff492c"/>
    <path id="Path_272" data-name="Path 272" d="M30.256,8a36.885,36.885,0,0,1,4.238.415c-1.455,2.958-2.891,5.922-4.354,8.873a12.648,12.648,0,0,0-8.121,2.888,12.084,12.084,0,0,0-2.527,16.092,12.71,12.71,0,0,0,8.531,5.552,12.994,12.994,0,0,0,10.388-2.815q2.38,4.054,4.785,8.1a22.526,22.526,0,0,1-14.767,4.069A22.111,22.111,0,0,1,14.5,44.914,21.3,21.3,0,0,1,8.24,32.634Q8.05,30.992,8,29.339v-.692a25.14,25.14,0,0,1,.692-4.359A21.774,21.774,0,0,1,19.625,10.616,23.011,23.011,0,0,1,30.063,8h.195Zm15.45,18.678c1.786,3.027,3.55,6.06,5.375,9.063l.16.188v.13l-.158.188c-1.82,3.02-3.589,6.069-5.4,9.1-1.827-3.126-3.684-6.235-5.522-9.353-3.682,0-7.364,0-11.046,0,1.833-3.107,3.686-6.2,5.5-9.318q5.546-.013,11.089,0Zm-.657-15.372a3.838,3.838,0,0,1,.011,5.5c-1.224,1.245-2.988,1.723-4.426,2.666a2.985,2.985,0,0,0-1.146,1.606c2.216.028,4.432.013,6.65.009.011.88.006,1.76.006,2.642q-4.987-.013-9.973,0a7.605,7.605,0,0,1,1.276-4.895,10.887,10.887,0,0,1,4.175-2.91c.692-.355,1.513-.841,1.611-1.669a1.36,1.36,0,0,0-.843-1.457,3.271,3.271,0,0,0-2.9.3,4.67,4.67,0,0,0-1.433,1.639c-.629-.616-1.26-1.232-1.9-1.833a5.587,5.587,0,0,1,4.482-2.906A5.842,5.842,0,0,1,45.048,11.306Z" transform="translate(9.277 9.277)" fill="#fff" fill-rule="evenodd"/>
  </g>
</svg>
