<svg width="132" height="48" viewBox="0 0 132 48" fill="none" xmlns="http://www.w3.org/2000/svg">
<g clip-path="url(#clip0_38_18091)">
<mask id="mask0_38_18091" style="mask-type:luminance" maskUnits="userSpaceOnUse" x="6" y="13" width="119" height="22">
<path d="M124.774 13.6465H6.29297V34.6852H124.774V13.6465Z" fill="white"/>
</mask>
<g mask="url(#mask0_38_18091)">
<path d="M17.5456 13.668L19.9678 21.0384H20.037L17.6148 13.668H17.5456ZM28.1168 22.0246L28.0476 22.0765L21.7845 26.6441L24.1721 34.0492L24.1894 34.1011L24.2413 34.0665L21.871 26.6614L28.1341 22.0765L28.1168 22.0246ZM17.0266 30.1218L10.7461 34.6547L10.798 34.6893L17.0611 30.139L17.0266 30.1218Z" fill="#0D0F2C"/>
<path d="M52.7984 24.7601C52.7984 25.4716 52.4911 25.6834 51.3381 26.0861C50.4149 26.4329 49.7042 26.5865 49.4924 26.5865C49.1076 26.5865 48.9353 26.2979 48.9353 25.702C48.9353 24.2798 49.3381 22.5497 50.8378 22.5497C52.2219 22.5497 52.7984 24.0494 52.7984 24.7601ZM37.8035 30.9693C37.8035 30.8537 37.7855 30.7776 37.7281 30.7195C37.5737 30.5651 36.9972 30.4697 36.7087 30.181C36.4983 29.9693 36.3626 29.6046 36.3626 28.7589V25.5097C36.3626 25.2591 36.4208 25.1062 36.6706 25.1062H39.9772C40.2271 25.1062 40.2845 25.2591 40.2845 25.5097V28.7589C40.2845 29.6046 40.1503 29.9693 39.9385 30.181C39.6499 30.4697 39.0734 30.5651 38.9198 30.7195C38.8617 30.7776 38.843 30.8537 38.843 30.9693C38.843 31.4683 38.9198 31.9693 38.9966 32.0455C39.0734 32.123 39.189 32.1416 39.4388 32.1416H44.8404C45.0902 32.1416 45.2051 32.123 45.2826 32.0455C45.3594 31.9693 45.4369 31.4683 45.4369 30.9693C45.4369 30.8537 45.4169 30.7776 45.3594 30.7195C45.2251 30.5852 44.6286 30.4697 44.34 30.181C44.1296 29.9693 44.014 29.5658 44.014 28.9118V19.9351C44.014 19.4742 44.1296 19.1655 44.3019 18.9939C44.6099 18.6859 45.2251 18.6278 45.3594 18.4928C45.4168 18.4354 45.4369 18.3205 45.4369 18.2243C45.4369 17.8783 45.3594 17.3592 45.2826 17.2824C45.2051 17.2056 45.1289 17.1855 44.8404 17.1855H39.6305C39.4194 17.1855 39.3426 17.2055 39.2852 17.2637C39.2277 17.3212 39.1696 17.7246 39.1696 18.2437C39.1696 18.3392 39.189 18.4547 39.2277 18.4928C39.3233 18.5897 39.8042 18.7433 39.9966 18.9357C40.2077 19.1475 40.2845 19.378 40.2845 20.0313V22.5878C40.2845 22.684 40.1883 22.8182 40.0541 22.8182H36.5937C36.4588 22.8182 36.3626 22.684 36.3626 22.5878V20.0313C36.3626 19.378 36.4394 19.1475 36.6512 18.9357C36.8436 18.7433 37.3239 18.5897 37.4201 18.4928C37.4588 18.4547 37.4782 18.3392 37.4782 18.2437C37.4782 17.7246 37.4201 17.3212 37.3626 17.2637C37.3052 17.2056 37.2277 17.1855 37.0166 17.1855H31.8074C31.5189 17.1855 31.442 17.2056 31.3645 17.2824C31.2885 17.3592 31.2109 17.8783 31.2109 18.2243C31.2109 18.3205 31.2303 18.4354 31.2884 18.4928C31.4227 18.6278 32.0379 18.6859 32.3452 18.9939C32.5182 19.1655 32.6338 19.4742 32.6338 19.9351V28.9118C32.6338 29.5658 32.5182 29.9693 32.3071 30.181C32.0186 30.4697 31.4227 30.5852 31.2884 30.7195C31.2303 30.7776 31.2109 30.8537 31.2109 30.9693C31.2109 31.4683 31.2885 31.9693 31.3645 32.0455C31.442 32.123 31.5189 32.1416 31.8074 32.1416H37.209C37.4588 32.1416 37.5737 32.123 37.6512 32.0455C37.7281 31.9693 37.8035 31.4683 37.8035 30.9693ZM55.6628 30.7001C56.2199 30.143 56.3556 29.8156 56.3556 29.5464C56.3556 29.2578 56.2781 29.0274 56.0476 28.797C55.7971 28.5471 55.5867 28.5083 55.3936 28.5083C55.1244 28.5083 55.0088 28.5851 54.8365 28.7589C53.9908 29.6046 52.914 30.0655 51.6067 30.0655C50.2807 30.0655 49.4536 29.1817 49.4536 28.6232C49.4536 28.4703 49.5886 28.3353 49.9339 28.2391C53.6254 27.0855 55.1631 26.3173 55.7397 25.7401C56.0663 25.4328 56.2005 25.0674 56.2005 24.7408C56.2005 23.2798 54.087 20.6853 50.8378 20.6853C49.4924 20.6853 48.1277 21.2223 47.1089 22.2417C46.0902 23.2612 45.4556 24.702 45.4556 26.6633C45.4556 28.5471 46.0515 29.8544 47.0895 30.8925C48.1277 31.9306 49.6267 32.4496 51.2613 32.4496C52.9334 32.4496 54.5098 31.8537 55.6628 30.7001ZM61.6796 21.3379C61.6796 21.0887 61.5446 20.9919 61.3336 20.9919H57.6234C57.4116 20.9919 57.3355 20.9919 57.2767 21.0694C57.2006 21.1462 57.1245 21.6652 57.1245 22.012C57.1245 22.1074 57.1625 22.1836 57.2006 22.2417C57.3355 22.4147 57.6234 22.4721 57.874 22.684C58.0463 22.8569 58.1238 23.2224 58.1238 23.7795V28.9118C58.1238 29.5658 58.0463 29.9887 57.8539 30.181C57.5653 30.4697 57.085 30.6039 56.9508 30.7382C56.9126 30.7776 56.8933 30.8537 56.8933 30.9887C56.8933 31.4883 56.9701 31.9693 57.047 32.0455C57.1051 32.1029 57.2006 32.1416 57.4116 32.1416H62.353C62.5641 32.1416 62.6603 32.1029 62.7177 32.0455C62.7945 31.9693 62.852 31.4883 62.852 30.9887C62.852 30.8537 62.8333 30.7776 62.7945 30.7382C62.6603 30.6039 62.2181 30.4697 61.9294 30.181C61.7377 29.9887 61.6796 29.5658 61.6796 28.9118V21.3379ZM59.6228 16.4941C58.566 16.4941 57.7003 17.3212 57.7003 18.3592C57.7003 19.416 58.566 20.243 59.6228 20.243C60.6997 20.243 61.5647 19.416 61.5647 18.3592C61.5647 17.3212 60.6997 16.4941 59.6228 16.4941ZM74.5206 23.9719C74.5206 21.8189 73.4062 20.7233 71.6564 20.7233C70.8294 20.7233 69.9456 20.9919 69.0612 21.531C68.7539 21.7234 68.6577 21.7808 68.5809 21.7808C68.2729 21.7808 68.4846 20.9919 67.9268 20.9919H64.5441C64.3323 20.9919 64.2749 20.9919 64.198 21.0694C64.1018 21.1656 64.025 21.6652 64.025 22.012C64.025 22.1074 64.0444 22.1836 64.1018 22.2417C64.2555 22.3961 64.5441 22.4535 64.7745 22.684C64.9482 22.8569 65.0236 23.2224 65.0236 23.7795V28.9118C65.0236 29.5658 64.9662 29.9887 64.7745 30.181C64.5053 30.4495 64.0444 30.6039 63.9094 30.7382C63.8714 30.7776 63.8513 30.8537 63.8513 30.9887C63.8513 31.4883 63.9094 31.9693 63.987 32.0455C64.0444 32.1029 64.1593 32.1416 64.371 32.1416H69.2155C69.4459 32.1416 69.522 32.1029 69.5795 32.0455C69.6764 31.9493 69.7539 31.4883 69.7539 30.9887C69.7539 30.8537 69.7339 30.7776 69.6951 30.7382C69.5422 30.5852 69.0999 30.4495 68.8307 30.181C68.6383 29.9887 68.5428 29.5658 68.5428 28.9118V25.1255C68.5428 23.5684 69.4064 23.0881 70.0418 23.0881C70.6951 23.0881 71.0605 23.5684 71.0605 24.5864V29.9125C71.0605 31.3347 71.9644 32.2759 73.5982 32.2759C75.4049 32.2759 76.1735 30.9693 76.1735 30.7001C76.1735 30.4697 75.8086 30.0081 75.5785 30.0081C75.3083 30.0081 74.9243 30.3541 74.7317 30.3541C74.5975 30.3541 74.5206 30.2579 74.5206 29.9506V23.9719ZM110.141 30.7001C110.699 30.143 110.833 29.8156 110.833 29.5464C110.833 29.2578 110.756 29.0274 110.526 28.797C110.275 28.5471 110.063 28.5083 109.872 28.5083C109.603 28.5083 109.487 28.5851 109.314 28.7589C108.468 29.6046 107.392 30.0655 106.085 30.0655C104.759 30.0655 103.932 29.1817 103.932 28.6232C103.932 28.4703 104.066 28.3353 104.413 28.2391C108.103 27.0855 109.641 26.3173 110.218 25.7401C110.545 25.4328 110.679 25.0674 110.679 24.7408C110.679 23.2798 108.564 20.6853 105.316 20.6853C103.97 20.6853 102.605 21.2223 101.586 22.2417C100.568 23.2612 99.9334 24.702 99.9334 26.6633C99.9334 28.5471 100.529 29.8544 101.567 30.8925C102.605 31.9306 104.105 32.4496 105.738 32.4496C107.411 32.4496 108.989 31.8537 110.141 30.7001ZM107.277 24.7601C107.277 25.4716 106.969 25.6834 105.816 26.0861C104.893 26.4329 104.182 26.5865 103.97 26.5865C103.586 26.5865 103.413 26.2979 103.413 25.702C103.413 24.2798 103.816 22.5497 105.316 22.5497C106.699 22.5497 107.277 24.0494 107.277 24.7601ZM86.516 30.7001C87.0728 30.143 87.2083 29.8156 87.2083 29.5464C87.2083 29.2578 87.1307 29.0274 86.9006 28.797C86.6507 28.5471 86.4397 28.5083 86.2471 28.5083C85.9768 28.5083 85.8624 28.5851 85.6895 28.7589C84.8434 29.6046 83.7665 30.0655 82.4594 30.0655C81.1333 30.0655 80.3063 29.1817 80.3063 28.6232C80.3063 28.4703 80.4417 28.3353 80.7875 28.2391C84.4785 27.0855 86.0163 26.3173 86.5922 25.7401C86.9196 25.4328 87.0538 25.0674 87.0538 24.7408C87.0538 23.2798 84.94 20.6853 81.6909 20.6853C80.3451 20.6853 78.9802 21.2223 77.9618 22.2417C76.9427 23.2612 76.3083 24.702 76.3083 26.6633C76.3083 28.5471 76.9046 29.8544 77.9414 30.8925C78.9802 31.9306 80.4798 32.4496 82.1143 32.4496C83.7862 32.4496 85.3628 31.8537 86.516 30.7001ZM83.6521 24.7601C83.6521 25.4716 83.3437 25.6834 82.1912 26.0861C81.2675 26.4329 80.5568 26.5865 80.345 26.5865C79.9604 26.5865 79.7882 26.2979 79.7882 25.702C79.7882 24.2798 80.1919 22.5497 81.6909 22.5497C83.0748 22.5497 83.6521 24.0494 83.6521 24.7601ZM122.135 23.9719C122.135 21.8189 121.021 20.7233 119.273 20.7233C118.445 20.7233 117.561 20.9919 116.677 21.531C116.369 21.7234 116.273 21.7808 116.197 21.7808C115.889 21.7808 116.1 20.9919 115.543 20.9919H112.16C111.948 20.9919 111.89 20.9919 111.813 21.0694C111.717 21.1656 111.64 21.6652 111.64 22.012C111.64 22.1074 111.66 22.1836 111.717 22.2417C111.872 22.3961 112.16 22.4535 112.39 22.684C112.562 22.8569 112.64 23.2224 112.64 23.7795V28.9118C112.64 29.5658 112.582 29.9887 112.39 30.181C112.121 30.4495 111.66 30.6039 111.526 30.7382C111.487 30.7776 111.467 30.8537 111.467 30.9887C111.467 31.4883 111.526 31.9693 111.601 32.0455C111.66 32.1029 111.775 32.1416 111.987 32.1416H116.83C117.061 32.1416 117.138 32.1029 117.196 32.0455C117.292 31.9493 117.369 31.4883 117.369 30.9887C117.369 30.8537 117.35 30.7776 117.311 30.7382C117.157 30.5852 116.715 30.4495 116.446 30.181C116.253 29.9887 116.157 29.5658 116.157 28.9118V25.1255C116.157 23.5684 117.023 23.0881 117.657 23.0881C118.311 23.0881 118.676 23.5684 118.676 24.5864V29.9125C118.676 31.3347 119.58 32.2759 121.213 32.2759C123.021 32.2759 123.789 30.9693 123.789 30.7001C123.789 30.4697 123.424 30.0081 123.194 30.0081C122.924 30.0081 122.54 30.3541 122.348 30.3541C122.213 30.3541 122.135 30.2579 122.135 29.9506V23.9719ZM91.9551 16.8402H88.2655C88.034 16.8402 87.938 16.8402 87.8808 16.9371C87.8033 17.0326 87.7454 17.5135 87.7454 17.8402C87.7454 17.9551 87.7658 18.0319 87.8033 18.1087C87.938 18.2437 88.4574 18.3779 88.6882 18.6091C88.8795 18.8015 88.9768 19.1856 88.9768 20.6458V28.3353C88.9768 29.6239 88.842 30.0274 88.6882 30.181C88.4186 30.4495 87.9578 30.6039 87.823 30.7382C87.7849 30.7776 87.7658 30.8537 87.7658 30.9887C87.7658 31.4883 87.823 31.9693 87.8999 32.0455C87.9578 32.1029 88.034 32.1416 88.2845 32.1416H93.1096C93.3594 32.1416 93.4357 32.1029 93.4936 32.0455C93.5705 31.9693 93.6665 31.4883 93.6665 30.9887C93.6665 30.8537 93.6481 30.7776 93.5895 30.7382C93.4554 30.6039 92.9939 30.4495 92.7434 30.181C92.533 29.9887 92.4554 29.5658 92.4554 28.9118V28.4703C92.4554 28.2204 92.533 28.1429 92.9558 27.7201C93.1477 27.5478 93.32 27.4135 93.4554 27.4135C93.6481 27.4135 93.8013 27.5477 95.9156 31.815C96.0504 32.0842 96.1076 32.1416 96.4534 32.1416H99.5869C99.8177 32.1416 99.8952 32.1029 99.9524 32.0455C100.029 31.9693 100.106 31.4883 100.106 30.9887C100.106 30.8537 100.088 30.7776 100.048 30.7382C99.9136 30.6039 99.1069 30.5077 98.934 30.181C96.1471 25.4716 96.0695 25.3172 96.0695 25.0293C96.0695 24.7795 97.3003 23.5497 98.3187 22.7421C98.9728 22.223 99.3949 22.5684 99.3949 21.9538C99.3949 21.2424 99.2996 20.9919 99.1641 20.9919H94.5133C94.1089 20.9919 94.0708 21.2223 94.0708 22.0881C94.0708 22.3759 94.8775 22.4147 94.8775 22.8182C94.8775 23.1642 92.917 25.0487 92.5909 25.0487C92.4752 25.0487 92.4554 24.9719 92.4554 24.6446V17.3786C92.4554 17.0706 92.2437 16.8402 91.9551 16.8402Z" fill="#0D0F2C"/>
<path d="M17.0106 13.8281L19.5624 21.5891L27.7321 21.6177L21.1395 26.443L23.6368 34.2216L17.0106 29.4428L10.3843 34.2216L12.8816 26.443L6.28906 21.6177L14.4587 21.5891L17.0106 13.8281Z" fill="#0D0F2C"/>
<path d="M122.147 16.4375C122.469 16.4375 122.78 16.5187 123.076 16.6811C123.373 16.8418 123.606 17.0731 123.775 17.3749C123.946 17.6768 124.031 17.9925 124.031 18.3222C124.031 18.6503 123.947 18.9636 123.78 19.2621C123.615 19.559 123.383 19.7911 123.084 19.9584C122.787 20.1241 122.475 20.2069 122.147 20.2069C121.819 20.2069 121.505 20.1241 121.206 19.9584C120.909 19.7911 120.677 19.559 120.51 19.2621C120.345 18.9636 120.262 18.6503 120.262 18.3222C120.262 17.9925 120.346 17.6768 120.515 17.3749C120.686 17.0731 120.919 16.8418 121.216 16.6811C121.514 16.5187 121.823 16.4375 122.147 16.4375ZM122.149 16.8066C121.89 16.8066 121.642 16.8714 121.404 17.0009C121.166 17.1305 120.978 17.3167 120.84 17.5595C120.704 17.8022 120.636 18.0565 120.636 18.3222C120.636 18.5863 120.702 18.8381 120.835 19.0776C120.97 19.3171 121.157 19.5041 121.396 19.6386C121.636 19.7731 121.887 19.8403 122.149 19.8403C122.414 19.8403 122.664 19.7731 122.902 19.6386C123.141 19.5041 123.329 19.3171 123.463 19.0776C123.598 18.8381 123.665 18.5863 123.665 18.3222C123.665 18.0565 123.596 17.8022 123.458 17.5595C123.322 17.3167 123.134 17.1305 122.895 17.0009C122.657 16.8714 122.408 16.8066 122.149 16.8066ZM121.295 19.331V17.3306H121.702C122.082 17.3306 122.295 17.3323 122.341 17.3356C122.475 17.3471 122.58 17.3742 122.654 17.4168C122.729 17.4578 122.792 17.5218 122.84 17.6087C122.892 17.694 122.917 17.7892 122.917 17.8941C122.917 18.0385 122.869 18.1623 122.774 18.2657C122.681 18.3674 122.548 18.4305 122.378 18.4551C122.439 18.4781 122.485 18.5035 122.518 18.5314C122.551 18.5577 122.596 18.6085 122.654 18.684C122.668 18.7036 122.717 18.7848 122.801 18.9275L123.038 19.3311H122.535L122.368 19.0063C122.255 18.7881 122.162 18.6511 122.087 18.5954C122.014 18.538 121.92 18.5093 121.807 18.5093H121.702V19.3311L121.295 19.331ZM121.702 18.1943H121.867C122.101 18.1943 122.246 18.1853 122.302 18.1672C122.359 18.1492 122.404 18.118 122.437 18.0737C122.47 18.0278 122.487 17.9762 122.487 17.9187C122.487 17.863 122.47 17.8138 122.437 17.7711C122.406 17.7268 122.361 17.6957 122.302 17.6776C122.243 17.658 122.097 17.6481 121.867 17.6481H121.702V18.1943Z" fill="#0D0F2C"/>
</g>
</g>
<defs>
<clipPath id="clip0_38_18091">
<rect width="119" height="21.0387" fill="white" transform="translate(6 13.6465)"/>
</clipPath>
</defs>
</svg>
