<svg width="80" height="80" viewBox="0 0 80 80" fill="none" xmlns="http://www.w3.org/2000/svg">
<rect width="80" height="80" fill="#F98012"/>
<path d="M55.39 57.1293V38.667C55.39 34.8083 53.7983 32.8784 50.6149 32.8773C47.4316 32.8761 45.8365 34.806 45.8297 38.667V57.1293H36.4246V38.667C36.4246 34.8083 34.8573 32.8784 31.7229 32.8773C28.5338 32.8773 26.9421 34.8072 26.9478 38.667V57.1293H17.541V37.5773C17.541 33.5492 18.9394 30.5006 21.7362 28.4314C24.1988 26.5839 27.5277 25.6602 31.7229 25.6602C35.976 25.6602 39.1094 26.751 41.1229 28.9328C42.8578 26.751 46.0195 25.6602 50.6081 25.6602C54.8033 25.6602 58.1311 26.5839 60.5913 28.4314C63.3881 30.4994 64.7871 33.5481 64.7882 37.5773V57.1293H55.39Z" fill="white"/>
<path d="M35.7996 24.2376L45.1348 17.4161L45.0154 17C28.1698 19.0652 20.5093 20.5284 6 28.9393L6.13472 29.3213L7.28755 29.3332C7.18182 30.4946 6.99764 33.3647 7.23298 37.681C5.62311 42.3401 7.19205 45.5052 8.66549 48.9484C8.89913 45.3671 8.87525 41.4448 7.77529 37.5412C7.54506 33.2539 7.73436 30.4349 7.83839 29.3383L17.4567 29.4304C17.4308 31.3139 17.5259 33.1971 17.7415 35.0684C26.3365 38.0886 34.981 35.0581 39.5702 27.6125C38.2963 26.1851 35.7996 24.2376 35.7996 24.2376Z" fill="#333333"/>
</svg>
