<svg width="80" height="80" viewBox="0 0 80 80" fill="none" xmlns="http://www.w3.org/2000/svg">
<rect width="80" height="80" fill="white"/>
<g clip-path="url(#clip0_600_50170)">
<path d="M45.6773 43.1861L41.561 13H41.2536C26.2858 13.0437 14.1628 25.1667 14.1191 40.1345V40.4419L45.6773 43.1861Z" fill="#ED6C47"/>
<path d="M41.8679 13H41.5605V40.4419L55.2815 45.9302L69.0024 40.4419V40.1345C68.9587 25.1667 56.8357 13.0437 41.8679 13Z" fill="#FF8F6B"/>
<path d="M69.0029 40.4414V40.7433C68.9599 55.7145 56.834 67.8403 41.8629 67.8833H41.2591C26.288 67.8403 14.1621 55.7145 14.1191 40.7433V40.4414H69.0029Z" fill="#D35230"/>
<path opacity="0.1" d="M42.9331 26.4895V55.7699C42.9263 56.7874 42.3097 57.7014 41.3689 58.0888C41.0694 58.2155 40.7475 58.2808 40.4222 58.2809H20.5955C20.2113 57.8418 19.8408 57.3753 19.4978 56.9088C16.0021 52.2455 14.1146 46.5735 14.1192 40.7455V40.1418C14.1112 34.885 15.6475 29.7417 18.5373 25.3506C18.8392 24.8841 19.1547 24.4176 19.4978 23.9785H40.4222C41.8046 23.989 42.9227 25.1071 42.9331 26.4895Z" fill="black"/>
<path opacity="0.2" d="M41.5611 27.8606V57.141C41.561 57.4663 41.4957 57.7882 41.369 58.0878C40.9816 59.0286 40.0676 59.6451 39.0501 59.6519H21.8441C21.4099 59.2112 20.9934 58.7535 20.5955 58.2799C20.2113 57.8408 19.8408 57.3743 19.4978 56.9078C16.0021 52.2445 14.1146 46.5725 14.1192 40.7445V40.1408C14.1112 34.884 15.6475 29.7407 18.5373 25.3496H39.0501C40.4325 25.3601 41.5506 26.4781 41.5611 27.8606Z" fill="black"/>
<path opacity="0.2" d="M41.561 27.8605V54.3968C41.5506 55.7792 40.4325 56.8973 39.0501 56.9078H19.4978C16.0021 52.2445 14.1146 46.5725 14.1192 40.7445V40.1408C14.1112 34.884 15.6475 29.7407 18.5373 25.3496H39.0501C40.4325 25.36 41.5506 26.4781 41.561 27.8605Z" fill="black"/>
<path opacity="0.2" d="M40.1889 27.8605V54.3968C40.1785 55.7792 39.0604 56.8973 37.678 56.9078H19.4978C16.0021 52.2445 14.1146 46.5725 14.1192 40.7445V40.1408C14.1112 34.884 15.6475 29.7407 18.5373 25.3496H37.678C39.0604 25.36 40.1785 26.4781 40.1889 27.8605Z" fill="black"/>
<path d="M12.515 25.3496H37.671C39.06 25.3496 40.186 26.4756 40.186 27.8646V53.0206C40.186 54.4096 39.06 55.5357 37.671 55.5357H12.515C11.126 55.5357 10 54.4096 10 53.0206V27.8646C10 26.4756 11.126 25.3496 12.515 25.3496Z" fill="url(#paint0_linear_600_50170)"/>
<path d="M25.3708 32.0548C27.0084 31.9443 28.6319 32.4199 29.9509 33.3967C31.051 34.3788 31.6389 35.812 31.5452 37.2838C31.5632 38.3069 31.2906 39.3142 30.7591 40.1885C30.2209 41.0479 29.4456 41.7331 28.5266 42.1616C27.4761 42.6502 26.3275 42.8915 25.1691 42.8669H21.9872V48.7806H18.7285V32.0548H25.3708ZM21.9845 40.312H24.7891C25.6782 40.3773 26.5604 40.1142 27.2685 39.5725C27.8541 39.0107 28.1611 38.2184 28.1068 37.4087C28.1068 35.5655 27.0357 34.6439 24.8934 34.6439H21.9845V40.312H21.9845Z" fill="white"/>
</g>
<defs>
<linearGradient id="paint0_linear_600_50170" x1="15.2439" y1="23.3844" x2="34.9421" y2="57.5009" gradientUnits="userSpaceOnUse">
<stop stop-color="#CA4C28"/>
<stop offset="0.5" stop-color="#C5401E"/>
<stop offset="1" stop-color="#B62F14"/>
</linearGradient>
<clipPath id="clip0_600_50170">
<rect width="59" height="54.8837" fill="white" transform="translate(10 13)"/>
</clipPath>
</defs>
</svg>
