<svg width="80" height="80" viewBox="0 0 80 80" fill="none" xmlns="http://www.w3.org/2000/svg">
<rect width="80" height="80" fill="#FF7A59"/>
<path fill-rule="evenodd" clip-rule="evenodd" d="M52.2304 52.3526C48.0491 52.3526 44.6574 48.9981 44.6574 44.8594C44.6574 40.7207 48.048 37.3651 52.2304 37.3651C56.4129 37.3651 59.8057 40.7196 59.8057 44.8594C59.8057 48.9992 56.4151 52.3526 52.2304 52.3526ZM54.4989 30.4318V23.76C55.3859 23.3537 56.1385 22.7026 56.668 21.8832C57.1976 21.0638 57.4821 20.1101 57.4881 19.1345V18.9803C57.4881 16.1606 55.1562 13.855 52.3092 13.855H52.1528C49.309 13.855 46.9739 16.1617 46.9739 18.9803V19.1345C46.9802 20.1101 47.2648 21.0636 47.7943 21.883C48.3238 22.7023 49.0762 23.3535 49.9631 23.76V30.4318C47.4092 30.8171 45.001 31.8651 42.9785 33.4713L24.4832 19.2341C24.6127 18.7657 24.6821 18.2827 24.6899 17.7969C24.6899 14.602 22.077 12.0088 18.8494 12C15.6217 11.9913 13.0033 14.5802 13 17.7761C12.9967 20.972 15.6086 23.5598 18.8362 23.5653C19.8472 23.5609 20.8396 23.2937 21.7161 22.7898L39.9138 36.8007C38.2767 39.2392 37.4214 42.1187 37.4618 45.0555C37.5023 47.9923 38.4365 50.8471 40.1402 53.2397L34.6037 58.7193C33.9486 58.514 33.2569 58.4531 32.576 58.5409C31.8952 58.6287 31.2415 58.863 30.6599 59.2277C30.0784 59.5924 29.5828 60.0789 29.2074 60.6536C28.8319 61.2283 28.5856 61.8776 28.4852 62.5566C28.3848 63.2357 28.4329 63.9285 28.626 64.5872C28.8192 65.2459 29.1529 65.855 29.604 66.3723C30.0552 66.8897 30.6132 67.3031 31.2395 67.584C31.8659 67.865 32.5457 68.0068 33.2321 67.9997C35.8833 67.9997 38.0336 65.8713 38.0336 63.2474C38.0289 62.7862 37.9552 62.3284 37.8149 61.889L43.2836 56.4728C45.858 58.4241 49.0001 59.4793 52.2304 59.4773C60.3909 59.4773 67.0026 52.9334 67.0026 44.8594C67.0026 37.551 61.5754 31.5157 54.4978 30.4318" fill="white"/>
</svg>
