<svg width="744" height="120" viewBox="0 0 744 120" fill="none" xmlns="http://www.w3.org/2000/svg">
<path d="M692.459 60.2161C692.459 47.5266 699.227 38.9251 708.956 38.9251C719.954 38.9251 726.44 46.9618 726.44 60.2161C726.44 73.4705 719.954 81.6476 708.956 81.6476C699.228 81.6486 692.459 72.9067 692.459 60.2161ZM705.29 96.8763C714.456 96.8763 721.505 93.0691 726.44 86.7248L727.849 95.4668H743.782V24.9665H727.849L726.44 33.7085C721.505 27.3632 714.455 23.5571 705.29 23.5571C686.397 23.5571 674.13 39.49 674.13 60.2172C674.13 80.9444 686.397 96.8763 705.29 96.8763ZM645.649 17.3487H663.414V0.00632147H645.649V17.3487ZM645.649 95.4657H663.414V24.9665H645.649V95.4657ZM606.732 96.8763C624.78 96.8763 636.06 87.8524 636.06 73.612C636.06 63.0372 630.562 56.2696 619.704 54.1538L603.489 51.1923C597.99 50.2052 595.452 48.0904 595.452 44.4247C595.452 40.3356 599.823 37.6571 606.169 37.6571C612.514 37.6571 617.025 40.6186 618.154 44.8481H634.933C633.663 31.8767 622.665 23.5571 606.45 23.5571C588.967 23.5571 578.11 32.1575 578.11 45.6938C578.11 56.2685 584.737 63.7414 596.863 66.1381L613.078 69.0995C616.743 69.8048 618.718 72.061 618.718 75.1629C618.718 79.9573 614.347 82.7773 606.874 82.7773C599.259 82.7773 594.466 79.3935 593.479 73.612H575.854C576.699 87.9929 588.543 96.8763 606.732 96.8763ZM520.02 52.1795C521.571 43.7194 528.621 37.6571 536.941 37.6571C545.964 37.6571 551.604 42.7333 553.155 52.1795H520.02ZM536.941 96.8763C554.706 96.8763 567.679 87.5705 568.806 73.612H552.45C551.04 79.1105 545.682 82.7773 536.941 82.7773C527.775 82.7773 519.739 75.1629 519.598 64.7296H569.794C569.794 63.4606 569.935 62.1915 569.935 59.7949C569.935 37.5167 557.245 23.5581 536.942 23.5581C516.779 23.5581 502.679 38.3634 502.679 60.2182C502.679 82.0731 516.778 96.8763 536.941 96.8763ZM430.063 95.4657H447.829V54.7176C447.829 45.13 453.892 38.9262 462.069 38.9262C469.824 38.9262 475.041 44.2843 475.041 53.59V95.4668H492.806V51.4742C492.806 34.4137 483.359 23.556 468.555 23.556C459.531 23.556 452.199 27.2217 447.828 33.4255V0.00012207H430.063V95.4657ZM402.993 95.4657H419.913V80.8019H409.338C405.672 80.8019 402.993 78.1234 402.993 74.4566V39.6304H419.913V24.9665H402.993V4.25004H385.227V24.9665H373.242V39.6304H385.227V77.7C385.227 87.9929 392.7 95.4657 402.993 95.4657ZM303.73 95.4657H321.495V54.7176C321.495 45.13 327.559 38.9262 335.736 38.9262C343.491 38.9262 348.707 44.2843 348.707 53.59V95.4668H366.473V51.4742C366.473 34.4137 357.026 23.556 342.222 23.556C332.916 23.556 325.443 27.5036 321.072 34.1308L319.662 24.9655H303.73V95.4657ZM234.641 120H252.548C259.881 120 266.084 115.488 268.34 108.58L295.975 24.9676H277.222L262.558 73.612L247.894 24.9676H229.424L253.253 97.0177C254.663 101.107 252.408 105.478 247.613 105.478H234.642L234.641 120ZM198.546 96.8763C216.593 96.8763 227.873 87.8524 227.873 73.612C227.873 63.0372 222.375 56.2696 211.517 54.1538L195.302 51.1923C189.804 50.2052 187.266 48.0904 187.266 44.4247C187.266 40.3356 191.637 37.6571 197.982 37.6571C204.327 37.6571 208.839 40.6186 209.967 44.8481H226.746C225.477 31.8767 214.479 23.5571 198.264 23.5571C180.78 23.5571 169.923 32.1575 169.923 45.6938C169.923 56.2685 176.55 63.7414 188.676 66.1381L204.891 69.0995C208.557 69.8048 210.531 72.061 210.531 75.1629C210.531 79.9573 206.16 82.7773 198.687 82.7773C191.073 82.7773 186.279 79.3935 185.292 73.612H167.667C168.513 87.9929 180.356 96.8763 198.546 96.8763Z" fill="white"/>
<path d="M24.0923 105.117H101.299C120.319 105.117 132.435 93.4233 134.408 75.53L138.353 38.4764H111.724L108.061 72.2902C107.638 76.7992 104.821 79.3342 100.171 79.3342H26.6284L24.0923 105.117ZM26.6284 79.3342L30.2913 45.5204C30.7143 41.0115 33.5321 38.4764 38.1814 38.4764H111.724L114.261 12.6941H37.0536C18.0336 12.6941 5.91731 24.3884 3.94453 42.2806L0 79.3342H26.6284Z" fill="white"/>
</svg>
