<svg width="24" height="24" viewBox="0 0 24 24" fill="none" xmlns="http://www.w3.org/2000/svg">
<path d="M20.2497 4.49998V19.4997C20.2493 19.8974 20.0911 20.2787 19.8099 20.5599C19.5287 20.8411 19.1474 20.9993 18.7498 20.9997H15.3748C14.9771 20.9993 14.5959 20.8411 14.3147 20.5599C14.0335 20.2787 13.8753 19.8974 13.8748 19.4997V4.49998C13.8753 4.1023 14.0335 3.72104 14.3147 3.43984C14.5959 3.15863 14.9771 3.00045 15.3748 3H18.7498C19.1474 3.00045 19.5287 3.15863 19.8099 3.43984C20.0911 3.72104 20.2493 4.1023 20.2497 4.49998V4.49998ZM8.62492 3H5.24998C4.8523 3.00045 4.47104 3.15863 4.18984 3.43984C3.90863 3.72104 3.75045 4.1023 3.75 4.49998V19.4997C3.75045 19.8974 3.90863 20.2787 4.18984 20.5599C4.47104 20.8411 4.8523 20.9993 5.24998 20.9997H8.62492C9.0226 20.9993 9.40386 20.8411 9.68506 20.5599C9.96626 20.2787 10.1244 19.8974 10.1249 19.4997V4.49998C10.1244 4.1023 9.96626 3.72104 9.68506 3.43984C9.40386 3.15863 9.0226 3.00045 8.62492 3V3Z" fill="#0B1220"/>
</svg>
