<svg width="132" height="48" viewBox="0 0 132 48" fill="none" xmlns="http://www.w3.org/2000/svg">
<path d="M36.7033 26.8633C36.1463 26.8633 35.6358 27.1418 35.3573 27.6059C35.0788 28.07 35.0788 28.6734 35.3573 29.1375C35.6358 29.6016 36.1463 29.9033 36.7033 29.8801C37.5387 29.8569 38.1885 29.1839 38.1885 28.3717C38.2117 27.5595 37.5387 26.8865 36.7033 26.8633Z" fill="#0D0F2C"/>
<path d="M34.7761 30.8047C34.0567 30.8047 33.4766 31.3848 33.4766 32.081C33.4766 32.8004 34.0567 33.3806 34.7761 33.3806C35.4955 33.3806 36.0757 32.8004 36.0757 32.081C36.0757 31.3848 35.4955 30.8047 34.7761 30.8047Z" fill="#0D0F2C"/>
<path d="M31.9569 36.1191C32.5717 36.0986 33.0536 35.5836 33.0331 34.9688C33.0126 34.354 32.4976 33.8721 31.8828 33.8926C31.2679 33.9131 30.7861 34.4281 30.8066 35.0429C30.8271 35.6578 31.3421 36.1396 31.9569 36.1191Z" fill="#0D0F2C"/>
<path d="M28.698 35.9824C28.1875 35.9824 27.793 36.3769 27.793 36.8875C27.793 37.398 28.1875 37.7925 28.698 37.7925C29.2086 37.7925 29.6031 37.398 29.6031 36.8875C29.6031 36.3769 29.2086 35.9824 28.698 35.9824Z" fill="#0D0F2C"/>
<path d="M25.5392 37.0684C25.1215 37.0684 24.7734 37.4165 24.7734 37.8342C24.7734 38.2519 25.1215 38.6 25.5392 38.6C25.957 38.6 26.3051 38.2519 26.3051 37.8342C26.3283 37.4165 25.9802 37.0684 25.5392 37.0684Z" fill="#0D0F2C"/>
<path d="M22.591 37.5156C22.2197 37.5156 21.918 37.8173 21.918 38.1886C21.918 38.5599 22.2197 38.8616 22.591 38.8616C22.9623 38.8616 23.2639 38.5599 23.2639 38.1886C23.2407 37.8173 22.9391 37.5156 22.591 37.5156Z" fill="#0D0F2C"/>
<path d="M19.6213 37.0684C19.2036 37.0684 18.8555 37.4165 18.8555 37.8342C18.8555 38.2519 19.2036 38.6 19.6213 38.6C20.039 38.6 20.3871 38.2519 20.3871 37.8342C20.3871 37.4165 20.039 37.0684 19.6213 37.0684Z" fill="#0D0F2C"/>
<path d="M16.4655 35.9531C16.1406 35.9531 15.839 36.1156 15.6765 36.394C15.5141 36.6725 15.5141 37.0206 15.6765 37.2991C15.839 37.5776 16.1406 37.74 16.4655 37.74C16.9529 37.74 17.3706 37.3455 17.3706 36.835C17.3474 36.3708 16.9529 35.9763 16.4655 35.9531Z" fill="#0D0F2C"/>
<path d="M13.2407 33.8945C12.8462 33.8945 12.4749 34.1034 12.266 34.4515C12.0572 34.7996 12.0572 35.2173 12.266 35.5654C12.4749 35.9135 12.823 36.1223 13.2407 36.1223C13.8441 36.1223 14.3546 35.635 14.3546 35.0084C14.3546 34.4051 13.8673 33.8945 13.2407 33.8945Z" fill="#0D0F2C"/>
<path d="M10.3855 30.8047C9.6661 30.8047 9.08594 31.3848 9.08594 32.1042C9.08594 32.8236 9.6661 33.4038 10.3855 33.4038C11.1049 33.4038 11.6851 32.8236 11.6851 32.1042C11.6618 31.3848 11.1049 30.8047 10.3855 30.8047Z" fill="#0D0F2C"/>
<path d="M8.46108 26.8645C7.90413 26.8413 7.39358 27.143 7.11511 27.6071C6.83663 28.0713 6.83663 28.6746 7.11511 29.1388C7.39358 29.6029 7.90413 29.9046 8.46108 29.8814C9.29651 29.8582 9.94629 29.1852 9.94629 28.3729C9.94629 27.5607 9.2733 26.8877 8.46108 26.8645Z" fill="#0D0F2C"/>
<path d="M7.76369 21.9414C6.78902 21.9414 6 22.7304 6 23.7051C6 24.6798 6.78902 25.4688 7.76369 25.4688C8.73836 25.4688 9.52737 24.6798 9.52737 23.7051C9.50417 22.7304 8.73836 21.9414 7.76369 21.9414Z" fill="#0D0F2C"/>
<path d="M8.46108 17.4805C7.90413 17.4805 7.39358 17.7589 7.11511 18.2231C6.83663 18.6872 6.83663 19.2906 7.11511 19.7547C7.39358 20.2188 7.90413 20.5205 8.46108 20.4973C9.29651 20.4741 9.94629 19.8011 9.94629 18.9889C9.94629 18.1767 9.2733 17.5037 8.46108 17.4805Z" fill="#0D0F2C"/>
<path d="M10.3854 13.9863C9.92125 13.9863 9.48033 14.2184 9.24827 14.6361C9.0162 15.0306 9.0162 15.5412 9.24827 15.9357C9.48033 16.3302 9.92125 16.5854 10.3854 16.5854C11.0816 16.5622 11.6617 16.0053 11.6617 15.2859C11.6385 14.5897 11.0816 14.0095 10.3854 13.9863Z" fill="#0D0F2C"/>
<path d="M13.235 11.2441C12.6316 11.2441 12.1211 11.7315 12.1211 12.358C12.1211 12.9614 12.6084 13.472 13.235 13.472C13.8384 13.472 14.3489 12.9846 14.3489 12.358C14.3489 11.7547 13.8616 11.2441 13.235 11.2441Z" fill="#0D0F2C"/>
<path d="M16.4636 9.59766C15.9763 9.59766 15.5586 9.99217 15.5586 10.5027C15.5586 10.99 15.9531 11.4078 16.4636 11.4078C16.951 11.4078 17.3687 11.0132 17.3687 10.5027C17.3455 10.0154 16.951 9.59766 16.4636 9.59766Z" fill="#0D0F2C"/>
<path d="M19.621 8.75977C19.1801 8.75977 18.832 9.10786 18.832 9.54878C18.832 9.9897 19.1801 10.3378 19.621 10.3378C20.0388 10.3378 20.3869 9.9897 20.3869 9.57199C20.3637 9.10786 20.0388 8.75977 19.621 8.75977Z" fill="#0D0F2C"/>
<path d="M22.5675 8.51758C22.1962 8.51758 21.8945 8.81926 21.8945 9.19056C21.8945 9.56187 22.1962 9.86355 22.5675 9.86355C22.9388 9.86355 23.2405 9.56187 23.2405 9.19056C23.2405 8.81926 22.9388 8.51758 22.5675 8.51758Z" fill="#0D0F2C"/>
<path d="M25.5392 8.75977C25.1215 8.75977 24.7734 9.10786 24.7734 9.52558C24.7734 9.94329 25.1215 10.2914 25.5392 10.2914C25.957 10.2914 26.3051 9.94329 26.3051 9.52558C26.3283 9.10786 25.9802 8.75977 25.5392 8.75977Z" fill="#0D0F2C"/>
<path d="M28.696 9.59766C28.3711 9.59766 28.0694 9.7601 27.907 10.0386C27.7445 10.3171 27.7445 10.6652 27.907 10.9436C28.0694 11.2221 28.3711 11.3845 28.696 11.3845C29.1833 11.3845 29.6011 10.99 29.6011 10.4795C29.6011 9.96896 29.2065 9.59766 28.696 9.59766Z" fill="#0D0F2C"/>
<path d="M31.9225 11.2656C31.3191 11.2656 30.8086 11.753 30.8086 12.3795C30.8086 12.9829 31.2959 13.4934 31.9225 13.4934C32.5259 13.4934 33.0364 13.0061 33.0364 12.3795C33.0364 11.753 32.5259 11.2656 31.9225 11.2656Z" fill="#0D0F2C"/>
<path d="M34.7761 13.9863C34.0567 13.9863 33.4766 14.5665 33.4766 15.2859C33.4766 16.0053 34.0567 16.5854 34.7761 16.5854C35.4955 16.5854 36.0757 16.0053 36.0757 15.2859C36.0757 14.5665 35.4955 13.9863 34.7761 13.9863Z" fill="#0D0F2C"/>
<path d="M36.7033 17.4805C36.1463 17.4805 35.6358 17.7589 35.3573 18.2231C35.0788 18.6872 35.0788 19.2906 35.3573 19.7547C35.6358 20.2188 36.1463 20.5205 36.7033 20.4973C37.5387 20.4741 38.1885 19.8011 38.1885 18.9889C38.1885 18.1535 37.5387 17.4805 36.7033 17.4805Z" fill="#0D0F2C"/>
<path d="M29.7412 26.0039C29.4859 26.0039 29.2538 26.1199 29.1378 26.3288C29.0218 26.5377 29.0218 26.8161 29.1378 27.025C29.2538 27.2338 29.4859 27.3731 29.7412 27.3499C30.1125 27.3267 30.391 27.025 30.391 26.6769C30.4142 26.3288 30.1125 26.0271 29.7412 26.0039Z" fill="#0D0F2C"/>
<path d="M28.042 28.5312C27.7867 28.5312 27.5546 28.6473 27.4386 28.8561C27.3226 29.065 27.3226 29.3435 27.4386 29.5523C27.5546 29.7612 27.8099 29.9004 28.042 29.8772C28.4133 29.854 28.6917 29.5523 28.6917 29.2042C28.6917 28.8561 28.4133 28.5545 28.042 28.5312Z" fill="#0D0F2C"/>
<path d="M25.5198 30.1582C25.2646 30.1582 25.0093 30.2974 24.8701 30.5295C24.7308 30.7616 24.7308 31.04 24.8701 31.2721C25.0093 31.5042 25.2414 31.6434 25.5198 31.6434C25.9375 31.6434 26.2624 31.3185 26.2624 30.9008C26.2624 30.4831 25.9375 30.1582 25.5198 30.1582Z" fill="#0D0F2C"/>
<path d="M22.5448 30.5918C21.9878 30.5918 21.5469 31.0327 21.5469 31.5897C21.5469 32.1466 21.9878 32.5875 22.5448 32.5875C23.1017 32.5875 23.5426 32.1466 23.5426 31.5897C23.5194 31.0327 23.0785 30.5918 22.5448 30.5918Z" fill="#0D0F2C"/>
<path d="M19.5512 29.9883C18.9246 29.9883 18.4141 30.4988 18.4141 31.1254C18.4141 31.752 18.9246 32.2625 19.5512 32.2625C20.1777 32.2625 20.6883 31.752 20.6883 31.1254C20.6883 30.4988 20.1777 29.9883 19.5512 29.9883Z" fill="#0D0F2C"/>
<path d="M16.8586 28.0918C16.1624 28.0918 15.6055 28.6487 15.6055 29.3449C15.6055 30.0411 16.1624 30.5981 16.8586 30.5981C17.5548 30.5981 18.1118 30.0411 18.1118 29.3449C18.1118 28.6487 17.5548 28.0918 16.8586 28.0918Z" fill="#0D0F2C"/>
<path d="M15.0716 25.541C14.4915 25.541 14.0273 26.0051 14.0273 26.5853C14.0273 27.1655 14.4915 27.6296 15.0716 27.6296C15.6518 27.6296 16.1159 27.1655 16.1159 26.5853C16.1391 26.0284 15.6518 25.541 15.0716 25.541Z" fill="#0D0F2C"/>
<path d="M14.6521 22.75C14.2111 22.75 13.8398 23.1213 13.8398 23.5622C13.8398 24.0031 14.2111 24.3744 14.6521 24.3744C15.093 24.3744 15.4643 24.0031 15.4643 23.5622C15.4643 23.0981 15.1162 22.75 14.6521 22.75Z" fill="#0D0F2C"/>
<path d="M15.3722 20.0156C15.0009 20.0156 14.6992 20.3173 14.6992 20.6886C14.6992 21.0599 15.0009 21.3616 15.3722 21.3616C15.7435 21.3616 16.0452 21.0599 16.0452 20.6886C16.0684 20.3173 15.7435 20.0156 15.3722 20.0156Z" fill="#0D0F2C"/>
<path d="M17.0927 17.5098C16.8375 17.5098 16.6054 17.6258 16.4894 17.8347C16.3733 18.0435 16.3733 18.322 16.4894 18.5308C16.6054 18.7397 16.8607 18.8789 17.0927 18.8557C17.464 18.8557 17.7657 18.5541 17.7657 18.1828C17.7425 17.8114 17.4408 17.5098 17.0927 17.5098Z" fill="#0D0F2C"/>
<path d="M19.5981 15.7402C19.1804 15.7402 18.8555 16.0651 18.8555 16.4828C18.8555 16.9006 19.1804 17.2254 19.5981 17.2254C20.0158 17.2254 20.3407 16.9006 20.3407 16.4828C20.3407 16.0883 20.0158 15.7402 19.5981 15.7402Z" fill="#0D0F2C"/>
<path d="M23.5873 15.8216C23.6085 15.2709 23.1792 14.8073 22.6285 14.7861C22.0777 14.765 21.6141 15.1943 21.593 15.745C21.5718 16.2957 22.0011 16.7593 22.5519 16.7805C23.1026 16.8016 23.5662 16.3723 23.5873 15.8216Z" fill="#0D0F2C"/>
<path d="M25.559 15.1152C24.9324 15.1152 24.4219 15.6258 24.4219 16.2523C24.4219 16.8789 24.9324 17.3895 25.559 17.3895C26.1856 17.3895 26.6961 16.8789 26.6961 16.2523C26.6961 15.6258 26.1856 15.1152 25.559 15.1152Z" fill="#0D0F2C"/>
<path d="M28.2531 16.7852C27.557 16.7852 27 17.3421 27 18.0383C27 18.7345 27.557 19.2914 28.2531 19.2914C28.9493 19.2914 29.5063 18.7345 29.5063 18.0383C29.5063 17.3421 28.9493 16.7852 28.2531 16.7852Z" fill="#0D0F2C"/>
<path d="M30.0404 19.7383C29.4602 19.7383 28.9961 20.2024 28.9961 20.7826C28.9961 21.3627 29.4602 21.8269 30.0404 21.8269C30.6205 21.8269 31.0847 21.3627 31.0847 20.7826C31.0847 20.2024 30.6205 19.7383 30.0404 19.7383Z" fill="#0D0F2C"/>
<path d="M27.3063 25.6086C27.6523 25.6086 27.9328 25.3281 27.9328 24.982C27.9328 24.636 27.6523 24.3555 27.3063 24.3555C26.9602 24.3555 26.6797 24.636 26.6797 24.982C26.6797 25.3281 26.9602 25.6086 27.3063 25.6086Z" fill="#0D0F2C"/>
<path d="M26.0767 26.3086C25.5662 26.3086 25.1484 26.7263 25.1484 27.2368C25.1484 27.7474 25.5662 28.1651 26.0767 28.1651C26.5872 28.1651 27.0049 27.7474 27.0049 27.2368C27.0282 26.7263 26.6104 26.3086 26.0767 26.3086Z" fill="#0D0F2C"/>
<path d="M23.6856 27.5586C23.1519 27.5586 22.7109 27.9995 22.7109 28.5333C22.7109 29.067 23.1519 29.5079 23.6856 29.5079C24.2194 29.5079 24.6603 29.067 24.6603 28.5333C24.6603 27.9995 24.2194 27.5586 23.6856 27.5586Z" fill="#0D0F2C"/>
<path d="M20.8527 27.4941C20.551 27.4941 20.2494 27.6566 20.1101 27.9351C19.9477 28.2135 19.9477 28.5384 20.1101 28.7937C20.2726 29.0722 20.551 29.2346 20.8527 29.2346C21.3401 29.2346 21.7114 28.8401 21.7114 28.376C21.7346 27.8887 21.3401 27.4941 20.8527 27.4941Z" fill="#0D0F2C"/>
<path d="M18.7633 26.0664C18.4152 26.0664 18.1367 26.3449 18.1367 26.693C18.1367 27.0411 18.4152 27.3196 18.7633 27.3196C19.1114 27.3196 19.3899 27.0411 19.3899 26.693C19.4131 26.3681 19.1114 26.0664 18.7633 26.0664Z" fill="#0D0F2C"/>
<path d="M17.929 24.2344C17.6737 24.2344 17.4648 24.4432 17.4648 24.6985C17.4648 24.9538 17.6737 25.1626 17.929 25.1626C18.1842 25.1626 18.3931 24.9538 18.3931 24.6985C18.3931 24.4432 18.1842 24.2344 17.929 24.2344Z" fill="#0D0F2C"/>
<path d="M17.8805 21.8477C17.5324 21.8477 17.2539 22.1261 17.2539 22.4742C17.2539 22.8223 17.5324 23.1008 17.8805 23.1008C18.2286 23.1008 18.5071 22.8223 18.5071 22.4742C18.5071 22.1261 18.2286 21.8477 17.8805 21.8477Z" fill="#0D0F2C"/>
<path d="M19.1079 19.2773C18.5974 19.2773 18.1797 19.6951 18.1797 20.2056C18.1797 20.7161 18.5974 21.1339 19.1079 21.1339C19.6185 21.1339 20.0362 20.7161 20.0362 20.2056C20.0362 19.6951 19.6185 19.2773 19.1079 19.2773Z" fill="#0D0F2C"/>
<path d="M21.502 17.9277C20.9683 17.9277 20.5273 18.3687 20.5273 18.9024C20.5273 19.4362 20.9683 19.8771 21.502 19.8771C22.0358 19.8771 22.4767 19.4362 22.4767 18.9024C22.4767 18.3687 22.0358 17.9277 21.502 17.9277Z" fill="#0D0F2C"/>
<path d="M24.3291 18.2266C24.0042 18.2266 23.7257 18.389 23.5632 18.6443C23.4008 18.9228 23.4008 19.2476 23.5632 19.5261C23.7257 19.8046 24.0274 19.967 24.3291 19.9438C24.7932 19.9206 25.1645 19.5493 25.1645 19.0852C25.1645 18.6211 24.7932 18.2498 24.3291 18.2266Z" fill="#0D0F2C"/>
<path d="M26.4 20.0879C26.0519 20.0879 25.7734 20.3664 25.7734 20.7145C25.7734 21.0626 26.0519 21.341 26.4 21.341C26.7481 21.341 27.0266 21.0626 27.0266 20.7145C27.0498 20.3664 26.7713 20.0879 26.4 20.0879Z" fill="#0D0F2C"/>
<path d="M27.2805 22.2969C27.0253 22.2969 26.8164 22.5057 26.8164 22.761C26.8164 23.0163 27.0253 23.2251 27.2805 23.2251C27.5358 23.2251 27.7447 23.0163 27.7447 22.761C27.7447 22.5057 27.5358 22.2969 27.2805 22.2969Z" fill="#0D0F2C"/>
<path d="M30.4607 23.0059C30.0197 23.0059 29.6484 23.3772 29.6484 23.8181C29.6484 24.259 30.0197 24.6303 30.4607 24.6303C30.9016 24.6303 31.2729 24.259 31.2729 23.8181C31.2729 23.3772 30.9016 23.0059 30.4607 23.0059Z" fill="#0D0F2C"/>
<path d="M33.8274 24.0078C33.3401 24.0078 32.9688 24.4023 32.9688 24.8665C32.9688 25.3538 33.3633 25.7251 33.8274 25.7251C34.3147 25.7251 34.686 25.3306 34.686 24.8665C34.686 24.4023 34.3147 24.0078 33.8274 24.0078Z" fill="#0D0F2C"/>
<path d="M32.9646 27.0469C32.5236 27.0469 32.1523 27.4182 32.1523 27.8591C32.1523 28.3 32.5236 28.6713 32.9646 28.6713C33.4055 28.6713 33.7768 28.3 33.7768 27.8591C33.7768 27.4182 33.4287 27.0469 32.9646 27.0469Z" fill="#0D0F2C"/>
<path d="M31.5048 29.6035C31.1335 29.6035 30.8086 29.9052 30.8086 30.2997C30.8086 30.671 31.1103 30.9959 31.5048 30.9959C31.8761 30.9959 32.1778 30.671 32.1778 30.2997C32.1778 29.9284 31.8761 29.6267 31.5048 29.6035Z" fill="#0D0F2C"/>
<path d="M29.738 31.5078C29.5291 31.5078 29.3202 31.6238 29.2042 31.8095C29.0882 31.9951 29.0882 32.2272 29.2042 32.4129C29.3202 32.5985 29.5059 32.7145 29.738 32.7145C30.0628 32.7145 30.3413 32.4593 30.3413 32.1112C30.3413 31.7863 30.0628 31.5078 29.738 31.5078Z" fill="#0D0F2C"/>
<path d="M27.8816 32.8926C27.6032 32.8926 27.3711 33.1246 27.3711 33.4031C27.3711 33.6816 27.6032 33.9137 27.8816 33.9137C28.1601 33.9137 28.3922 33.6816 28.3922 33.4031C28.3922 33.1246 28.1601 32.8926 27.8816 32.8926Z" fill="#0D0F2C"/>
<path d="M25.7674 33.6816C25.4425 33.6816 25.1641 33.9369 25.1641 34.285C25.1641 34.6099 25.4193 34.8884 25.7674 34.8884C26.0923 34.8884 26.3708 34.6331 26.3708 34.285C26.3476 33.9369 26.0923 33.6816 25.7674 33.6816Z" fill="#0D0F2C"/>
<path d="M23.286 34.0781C22.9147 34.0781 22.5898 34.3798 22.5898 34.7743C22.5898 35.1456 22.8915 35.4705 23.286 35.4705C23.6573 35.4705 23.9822 35.1688 23.9822 34.7743C23.959 34.3798 23.6573 34.0781 23.286 34.0781Z" fill="#0D0F2C"/>
<path d="M20.4561 33.8008C19.9687 33.8008 19.5742 34.1953 19.5742 34.6826C19.5742 35.17 19.9687 35.5645 20.4561 35.5645C20.9434 35.5645 21.3379 35.17 21.3379 34.6826C21.3379 34.1953 20.9434 33.8008 20.4561 33.8008Z" fill="#0D0F2C"/>
<path d="M17.4623 32.7363C16.8821 32.7363 16.418 33.2005 16.418 33.7806C16.418 34.3608 16.8821 34.8249 17.4623 34.8249C18.0424 34.8249 18.5065 34.3608 18.5065 33.7806C18.5298 33.2005 18.0424 32.7363 17.4623 32.7363Z" fill="#0D0F2C"/>
<path d="M14.8429 30.7344C14.402 30.7344 13.9842 30.9664 13.7522 31.3377C13.5201 31.7323 13.5201 32.1964 13.7522 32.5909C13.9842 32.9854 14.402 33.2175 14.8429 33.1943C15.5159 33.171 16.0496 32.6373 16.0496 31.9643C16.0496 31.3145 15.5159 30.7576 14.8429 30.7344Z" fill="#0D0F2C"/>
<path d="M12.6389 27.7656C11.8963 27.7656 11.293 28.369 11.293 29.1116C11.293 29.8542 11.8963 30.4576 12.6389 30.4576C13.3815 30.4576 13.9849 29.8542 13.9849 29.1116C13.9849 28.3458 13.3815 27.7656 12.6389 27.7656Z" fill="#0D0F2C"/>
<path d="M12.4553 25.7857C12.4971 25.1977 12.0543 24.687 11.4662 24.6452C10.8781 24.6034 10.3675 25.0463 10.3257 25.6344C10.2839 26.2225 10.7267 26.7331 11.3148 26.7749C11.9029 26.8167 12.4135 26.3738 12.4553 25.7857Z" fill="#0D0F2C"/>
<path d="M12.1841 22.5423C12.2103 22.0688 11.8477 21.6637 11.3742 21.6375C10.9007 21.6112 10.4956 21.9738 10.4694 22.4473C10.4431 22.9208 10.8057 23.3259 11.2792 23.3522C11.7527 23.3784 12.1578 23.0158 12.1841 22.5423Z" fill="#0D0F2C"/>
<path d="M12.195 18.6875C11.7541 18.6875 11.3828 19.0588 11.3828 19.4997C11.3828 19.9406 11.7541 20.3119 12.195 20.3119C12.636 20.3119 13.0073 19.9406 13.0073 19.4997C13.0073 19.0588 12.636 18.6875 12.195 18.6875Z" fill="#0D0F2C"/>
<path d="M13.6591 16.3945C13.4039 16.3945 13.1718 16.5106 13.0558 16.7426C12.9397 16.9515 12.9397 17.23 13.0558 17.4388C13.1718 17.6477 13.4271 17.7869 13.6591 17.7869C14.0304 17.7869 14.3321 17.462 14.3321 17.0907C14.3321 16.6962 14.0304 16.3945 13.6591 16.3945Z" fill="#0D0F2C"/>
<path d="M15.4198 14.6758C15.0949 14.6758 14.8164 14.9311 14.8164 15.2791C14.8164 15.604 15.0717 15.8825 15.4198 15.8825C15.7679 15.8825 16.0231 15.6272 16.0231 15.2791C16.0231 14.9543 15.7447 14.6758 15.4198 14.6758Z" fill="#0D0F2C"/>
<path d="M17.2762 13.4746C16.9977 13.4746 16.7656 13.7067 16.7656 13.9852C16.7656 14.2636 16.9977 14.4957 17.2762 14.4957C17.5546 14.4957 17.7867 14.2636 17.7867 13.9852C17.7867 13.6835 17.5546 13.4746 17.2762 13.4746Z" fill="#0D0F2C"/>
<path d="M19.3885 12.5156C19.0636 12.5156 18.7852 12.7709 18.7852 13.119C18.7852 13.4439 19.0404 13.7224 19.3885 13.7224C19.7134 13.7224 19.9919 13.4671 19.9919 13.119C19.9919 12.7709 19.7134 12.5156 19.3885 12.5156Z" fill="#0D0F2C"/>
<path d="M21.8701 11.9121C21.6148 11.9121 21.3827 12.0281 21.2667 12.2602C21.1507 12.4691 21.1507 12.7475 21.2667 12.9564C21.3827 13.1653 21.638 13.3045 21.8701 13.3045C22.2414 13.3045 22.5431 12.9796 22.5431 12.6083C22.5431 12.237 22.2414 11.9353 21.8701 11.9121Z" fill="#0D0F2C"/>
<path d="M24.7038 11.7988C24.3789 11.7988 24.0772 11.9613 23.9148 12.2397C23.7524 12.5182 23.7524 12.8663 23.9148 13.1448C24.0772 13.4233 24.3789 13.5857 24.7038 13.5857C25.1912 13.5857 25.5857 13.168 25.5857 12.6807C25.5857 12.1933 25.1912 11.7988 24.7038 11.7988Z" fill="#0D0F2C"/>
<path d="M27.5987 12.4668C27.0186 12.4668 26.5312 12.9309 26.5312 13.5343C26.5312 14.1145 26.9954 14.6018 27.5987 14.6018C28.1789 14.6018 28.6662 14.1377 28.6662 13.5343C28.6662 12.9541 28.1789 12.4668 27.5987 12.4668Z" fill="#0D0F2C"/>
<path d="M30.3432 14.1426C29.647 14.1426 29.1133 14.6995 29.1133 15.3725C29.1133 16.0455 29.6702 16.6025 30.3432 16.6025C31.0394 16.6025 31.5732 16.0455 31.5732 15.3725C31.5732 14.6995 31.0162 14.1426 30.3432 14.1426Z" fill="#0D0F2C"/>
<path d="M32.5234 16.9258C32.0361 16.9258 31.5952 17.1811 31.3399 17.5988C31.0846 18.0165 31.0846 18.527 31.3399 18.9447C31.5952 19.3625 32.0361 19.6177 32.5234 19.6177C33.266 19.5945 33.8462 19.0144 33.8462 18.2718C33.823 17.5524 33.2428 16.949 32.5234 16.9258Z" fill="#0D0F2C"/>
<path d="M33.7511 20.6133C33.3798 20.6133 33.0085 20.7989 32.8228 21.1238C32.6372 21.4487 32.6372 21.8664 32.8228 22.1913C33.0085 22.5162 33.3798 22.7251 33.7511 22.7019C34.3312 22.6787 34.7722 22.2145 34.7722 21.6576C34.7722 21.1006 34.3312 20.6365 33.7511 20.6133Z" fill="#0D0F2C"/>
<path d="M39.1602 23.6836C39.1602 24.6583 38.3712 25.4473 37.3965 25.4473C36.4218 25.4473 35.6328 24.6583 35.6328 23.6836C35.6328 22.7089 36.4218 21.9199 37.3965 21.9199C38.3712 21.9431 39.1602 22.7321 39.1602 23.6836Z" fill="#0D0F2C"/>
<path d="M126.001 26.3938C126.001 24.7229 125.05 23.8411 123.565 23.2377C122.404 22.7736 121.383 22.3791 120.594 22.0542C119.828 21.7525 119.155 21.2188 119.155 20.6386C119.155 19.8496 120.13 19.3855 121.43 19.3855C122.961 19.3855 124.168 19.5943 125.305 19.7103H125.352C125.537 19.7103 125.653 19.5711 125.653 19.3855V18.0859C125.653 17.9234 125.514 17.7842 125.328 17.761C124.725 17.6218 123.193 17.2969 121.522 17.2969C118.274 17.2969 116.719 18.6893 116.719 20.6386C116.719 21.8685 117.252 23.0753 118.784 23.7018C120.316 24.3284 123.449 25.071 123.449 26.3706C123.449 27.3917 122.984 27.9486 121.406 27.9486C119.782 27.9486 118.134 27.7166 117.438 27.6237H117.392C117.206 27.6237 117.067 27.763 117.067 27.9486V29.2018C117.067 29.3874 117.229 29.5266 117.392 29.5499C118.227 29.7355 119.805 30.014 121.36 30.014C124.911 30.0604 126.001 28.1575 126.001 26.3938Z" fill="#0D0F2C"/>
<path d="M91.6564 19.4875H88.1522V29.5591C88.1522 29.7447 87.9898 29.9071 87.8041 29.9071H86.0636C85.878 29.9071 85.7155 29.7447 85.7155 29.5591V19.4875H82.2114C82.0257 19.4875 81.8633 19.3714 81.8633 19.1626V17.7702C81.8633 17.5846 82.0257 17.4453 82.2114 17.4453H91.6564C91.842 17.4453 92.0045 17.5846 92.0045 17.7702V19.1626C92.0045 19.3714 91.842 19.4875 91.6564 19.4875Z" fill="#0D0F2C"/>
<path d="M80.3291 25.0939V17.7839C80.3291 17.5982 80.1667 17.459 79.981 17.459H78.2406C78.0549 17.459 77.8925 17.5982 77.8925 17.7839V25.0707C77.8925 27.0664 76.9642 28.0179 75.0845 28.0179C73.2048 28.0179 72.2765 27.0664 72.2765 25.0707V17.7839C72.2765 17.5982 72.1141 17.459 71.9284 17.459H70.1879C70.0023 17.459 69.8398 17.5982 69.8398 17.7839V25.0707C69.8398 28.8069 72.2765 30.0369 75.0845 30.0369C77.8925 30.0369 80.3291 28.8301 80.3291 25.0939Z" fill="#0D0F2C"/>
<path d="M96.0424 24.495H101.658C101.844 24.495 102.006 24.3326 102.006 24.1469V22.8706C102.006 22.6849 101.844 22.5225 101.658 22.5225H96.0424V20.9212C96.0424 19.4592 96.0888 19.4128 97.4348 19.4128H101.867C102.053 19.4128 102.215 19.2504 102.215 19.0647V17.9508C102.215 17.6955 102.122 17.6259 101.867 17.5795C101.31 17.4867 100.173 17.3242 98.0845 17.3242C95.1837 17.3242 93.6289 17.301 93.6289 20.9212V26.4675C93.6289 30.0877 95.1837 30.0645 98.0845 30.0645C100.173 30.0645 101.31 29.9021 101.867 29.8093C102.122 29.7861 102.215 29.6932 102.215 29.438V28.3241C102.215 28.1384 102.053 27.976 101.867 27.976H97.4348C96.112 27.976 96.0424 27.9295 96.0424 26.4675V24.495Z" fill="#0D0F2C"/>
<path d="M61.39 24.495H67.006C67.1916 24.495 67.3541 24.3326 67.3541 24.1469V22.8706C67.3541 22.6849 67.1916 22.5225 67.006 22.5225H61.39V20.9212C61.39 19.4592 61.4364 19.4128 62.7824 19.4128H67.2148C67.4005 19.4128 67.5629 19.2504 67.5629 19.0647V17.9508C67.5629 17.6955 67.4701 17.6259 67.2148 17.5795C66.6579 17.4867 65.5208 17.3242 63.4322 17.3242C60.5314 17.3242 58.9766 17.301 58.9766 20.9212V26.4675C58.9766 30.0877 60.5314 30.0645 63.4322 30.0645C65.5208 30.0645 66.6579 29.9021 67.2148 29.8093C67.4701 29.7861 67.5629 29.6932 67.5629 29.438V28.3241C67.5629 28.1384 67.4005 27.976 67.2148 27.976H62.7824C61.4596 27.976 61.39 27.9295 61.39 26.4675V24.495V24.495Z" fill="#0D0F2C"/>
<path d="M115.253 29.554L112.515 24.8663C113.954 24.3093 114.882 23.2883 114.882 21.4318V21.2925C114.882 18.2989 112.399 17.3242 109.684 17.3242C108.407 17.3242 106.435 17.417 105.53 17.5563C105.182 17.6027 104.973 17.7419 104.973 18.09V29.5772C104.973 29.7628 105.135 29.9253 105.321 29.9253H107.084C107.27 29.9253 107.409 29.7628 107.409 29.5772V25.2376C107.804 25.2608 109.219 25.3072 109.684 25.3072H110.078L112.608 29.554C112.7 29.7164 112.77 29.9021 112.956 29.9021H115.091C115.23 29.9021 115.3 29.8093 115.3 29.6932C115.3 29.6468 115.276 29.6004 115.253 29.554ZM112.445 21.4318C112.445 22.9634 111.47 23.3115 109.66 23.3115C109.359 23.3115 107.665 23.2651 107.386 23.2651V19.4824C107.688 19.436 109.289 19.4128 109.66 19.4128C111.424 19.4128 112.445 19.9697 112.445 21.2925V21.4318Z" fill="#0D0F2C"/>
<path d="M57.0732 29.554L54.3116 24.8663C55.7504 24.3093 56.6787 23.2883 56.6787 21.4318V21.2925C56.6787 18.2989 54.1956 17.3242 51.4804 17.3242C50.2041 17.3242 48.2315 17.417 47.3265 17.5563C46.9784 17.6027 46.7695 17.7419 46.7695 18.09V29.5772C46.7695 29.7628 46.932 29.9253 47.1176 29.9253H48.8813C49.067 29.9253 49.2062 29.7628 49.2062 29.5772V25.2376C49.6007 25.2608 51.0163 25.3072 51.4804 25.3072H51.8749L54.4044 29.554C54.4973 29.7164 54.5669 29.9021 54.7525 29.9021H56.8875C57.0268 29.9021 57.0964 29.8093 57.0964 29.6932C57.0964 29.6468 57.0964 29.6004 57.0732 29.554ZM54.2652 21.4318C54.2652 22.9634 53.2905 23.3115 51.5036 23.3115C51.202 23.3115 49.5079 23.2651 49.2294 23.2651V19.4824C49.5311 19.436 51.1323 19.4128 51.5036 19.4128C53.2673 19.4128 54.2652 19.9697 54.2652 21.2925V21.4318Z" fill="#0D0F2C"/>
</svg>
