<svg width="132" height="48" viewBox="0 0 132 48" fill="none" xmlns="http://www.w3.org/2000/svg">
<path fill-rule="evenodd" clip-rule="evenodd" d="M42.9021 19.5625V30.6069H44.9468V19.5625H42.9021ZM75.479 19.8197C74.1668 19.8197 72.9612 20.5005 72.9612 22.3918V23.3448H71.9998V25.0998H72.9612V30.6069H75.0061V25.0998H76.471V23.3448H75.0061V22.4674C75.0061 21.8471 75.4027 21.5748 75.9825 21.5748C76.2725 21.5748 76.5626 21.6203 76.8068 21.7261V20.0618C76.3946 19.8954 76.0131 19.8197 75.479 19.8197ZM29.3438 20.5581V22.5309H31.8117V30.8633H33.8831V22.5309H36.3513V20.5581H29.3438V20.5581ZM49.0925 23.1482C47.0476 23.1482 45.8573 24.6309 45.8573 26.9761C45.8573 29.3514 47.1697 30.8037 49.5655 30.8037C50.3744 30.8037 51.0459 30.6978 51.6409 30.4253V28.9125C51.0305 29.1546 50.4508 29.2303 49.8402 29.2303C48.7873 29.2303 48.1464 28.8065 47.9786 27.7476H52.0835C52.3275 24.8125 51.1832 23.1482 49.0925 23.1482V23.1482ZM56.7138 23.1482C55.7677 23.1482 55.1725 23.6171 54.8368 24.0862V23.3449H53.0056V33.9354H55.0504V30.0623C55.4013 30.4558 55.9356 30.8038 56.7596 30.8038C58.5754 30.8038 59.3994 29.2151 59.3994 26.9761C59.3994 24.9335 58.6823 23.1482 56.7138 23.1482V23.1482ZM63.2525 23.1482C61.2075 23.1482 60.0171 24.6309 60.0171 26.9761C60.0171 29.3514 61.3295 30.8037 63.7254 30.8037C64.5343 30.8037 65.2057 30.6978 65.8008 30.4253V28.9125C65.1904 29.1546 64.6105 29.2303 64.0001 29.2303C62.9472 29.2303 62.3063 28.8065 62.1385 27.7476H66.2433C66.4876 24.8125 65.3429 23.1482 63.2525 23.1482V23.1482ZM92.6823 23.1482C91.8888 23.1482 91.2631 23.4811 90.8358 24.0258V23.3449H89.0047V30.6071H91.0189V25.7051C91.2784 25.2662 91.6294 25.0243 92.0414 25.0243C92.5144 25.0243 92.8045 25.3117 92.8045 25.9017V30.6071H94.8034V25.6748C95.0629 25.2663 95.3986 25.0243 95.826 25.0243C96.3142 25.0243 96.5891 25.3117 96.5891 25.9017V30.6071H98.6033V25.4783C98.6033 24.177 97.886 23.1482 96.4056 23.1482C95.6123 23.1482 94.956 23.4056 94.4219 24.0258C94.071 23.4811 93.4759 23.1482 92.6823 23.1482ZM102.354 23.1482C101.515 23.1482 100.614 23.3299 99.9427 23.5718V25.3118C100.553 25.0545 101.331 24.8579 102.156 24.8579C103.163 24.8579 103.437 25.3723 103.437 25.9623V26.3557C102.995 26.2649 102.659 26.2195 102.262 26.2195C100.629 26.2195 99.4849 26.9911 99.4849 28.5493C99.4849 30.0774 100.569 30.8037 101.82 30.8037C102.583 30.8037 103.239 30.5918 103.788 30.1531C104.094 30.5463 104.612 30.7129 105.177 30.7129C105.543 30.7129 105.848 30.6673 106.154 30.5767V29.1546C106.077 29.1697 105.986 29.1849 105.91 29.1849C105.62 29.1849 105.437 29.0637 105.437 28.7006V26.1136C105.437 24.0409 104.384 23.1482 102.354 23.1482V23.1482ZM110.724 23.1482C109.763 23.1482 109.153 23.5417 108.741 24.0258V23.3449H106.909V30.6071H108.954V25.7504C109.153 25.3723 109.519 25.0243 110.053 25.0243C110.587 25.0243 110.892 25.2815 110.892 25.9017V30.6071H112.937V25.463C112.937 23.9503 111.884 23.1482 110.724 23.1482V23.1482ZM122.728 23.1482C120.683 23.1482 119.493 24.6309 119.493 26.9761C119.493 29.3514 120.805 30.8037 123.201 30.8037C124.01 30.8037 124.681 30.6978 125.276 30.4253V28.9125C124.666 29.1546 124.086 29.2303 123.476 29.2303C122.423 29.2303 121.782 28.8065 121.614 27.7476H125.719C125.963 24.8125 124.818 23.1482 122.728 23.1482V23.1482ZM80.0461 23.1484C77.9251 23.1484 76.7499 24.5856 76.7499 26.976C76.7499 29.3665 77.9251 30.8037 80.0461 30.8037C82.152 30.8037 83.3271 29.3665 83.3271 26.976C83.3271 24.5703 82.152 23.1484 80.0461 23.1484V23.1484ZM117.269 23.1484C115.255 23.1484 113.79 24.5402 113.79 27.0364C113.79 29.4572 115.209 30.8037 117.178 30.8037C117.926 30.8037 118.49 30.6978 118.948 30.4859V28.731C118.567 28.8974 118.124 29.0335 117.498 29.0335C116.445 29.0335 115.85 28.2923 115.85 26.976C115.85 25.6596 116.522 24.8881 117.59 24.8881C118.093 24.8881 118.49 24.9941 118.872 25.1907V23.4811C118.368 23.239 117.895 23.1484 117.269 23.1484V23.1484ZM70.9595 23.1817C70.0113 23.1868 69.2968 23.613 68.8959 24.4494V23.345H67.0646V30.6071H69.1094V26.4917C69.5062 25.4783 70.2844 25.1302 71.2612 25.2513V23.1937C71.1582 23.1852 71.0576 23.1812 70.9595 23.1817V23.1817ZM87.9575 23.1817C87.0092 23.1868 86.2948 23.613 85.8937 24.4494V23.345H84.0627V30.6071H86.1073V26.4917C86.5043 25.4783 87.2825 25.1302 88.2592 25.2513V23.1937C88.1562 23.1852 88.0556 23.1812 87.9575 23.1817V23.1817ZM38.9233 23.193C36.8784 23.193 35.6881 24.6758 35.6881 27.0209C35.6881 29.3962 37.0006 30.8486 39.3964 30.8486C40.2053 30.8486 40.8766 30.7426 41.4717 30.4702V28.9573C40.8613 29.1996 40.2815 29.2752 39.671 29.2752C38.6181 29.2752 37.9772 28.8516 37.8094 27.7926H41.9144C42.1584 24.8574 41.014 23.193 38.9233 23.193V23.193ZM49.1231 24.8126C49.9013 24.8126 50.2065 25.3723 50.2065 26.401H47.9022C47.9786 25.4176 48.3449 24.8126 49.1231 24.8126ZM63.2828 24.8126C64.061 24.8126 64.3663 25.3723 64.3663 26.401H62.0622C62.1385 25.4176 62.5046 24.8126 63.2828 24.8126ZM122.758 24.8126C123.536 24.8126 123.842 25.3723 123.842 26.401H121.538C121.614 25.4176 121.98 24.8126 122.758 24.8126ZM38.9538 24.8575C39.7322 24.8575 40.0373 25.4173 40.0373 26.4461H37.733C37.8094 25.4626 38.1756 24.8575 38.9538 24.8575ZM80.0461 24.9034C80.9161 24.9034 81.2669 25.6445 81.2669 26.976C81.2669 28.3074 80.9161 29.0335 80.0461 29.0335C79.161 29.0335 78.81 28.3074 78.81 26.976C78.81 25.6445 79.161 24.9034 80.0461 24.9034ZM56.1643 24.9185C57.0341 24.9185 57.3698 25.6598 57.3698 26.9761C57.3698 28.2923 57.0341 29.0335 56.1643 29.0335C55.676 29.0335 55.2947 28.7461 55.0504 28.2923V25.6598C55.2947 25.2058 55.676 24.9185 56.1643 24.9185V24.9185ZM102.705 27.5206C102.949 27.5206 103.178 27.5509 103.437 27.6115V29.0033C103.117 29.2909 102.796 29.4268 102.339 29.4268C101.85 29.4268 101.454 29.1394 101.454 28.4889C101.454 27.7627 101.957 27.5206 102.705 27.5206Z" fill="#0D0F2C"/>
<path d="M18.5726 13L6.69964 13.0032C6.3256 12.9952 5.98665 13.3335 6.0018 13.7083C5.99941 14.907 6.00188 16.1048 6.0003 17.3027C5.99551 17.5085 6.0473 17.7239 6.20442 17.8658L10.4457 22.0609L10.4497 17.6904C10.4505 17.5751 10.3062 17.5388 10.2137 17.5468C9.17447 17.5444 8.13531 17.5524 7.09692 17.5444C6.87201 17.5652 6.65585 17.3713 6.68058 17.1408C6.67659 16.1295 6.67975 15.1183 6.67896 14.1071C6.64705 13.8694 6.85918 13.6557 7.09604 13.6804L17.9322 13.6844C18.1483 13.686 18.3103 13.8981 18.2903 14.1071C18.2935 15.1175 18.2975 16.1287 18.2887 17.1392C18.3007 17.3338 18.1532 17.5061 17.9673 17.5459C16.9218 17.5443 15.877 17.5492 14.8314 17.5452C14.7317 17.5612 14.5794 17.5125 14.5267 17.6297C14.4742 21.7662 14.5033 26.1573 14.506 29.7459C14.5252 29.8983 14.4438 30.0291 14.3688 30.1535C14.0235 30.2421 13.6646 30.2006 13.3128 30.2077L10.7292 30.1792C10.7292 30.1792 12.4277 31.987 13.2818 32.8117C13.6367 33.1279 13.9813 33.531 14.3585 33.5829L17.6291 33.567C17.8955 33.5375 18.0877 33.2742 18.0725 33.0134C18.0789 30.62 18.067 28.2258 18.0781 25.8316C18.0885 25.5796 18.4274 25.6888 18.5909 25.6609C18.5909 25.6609 25.4111 25.9743 25.4365 19.4754C25.4111 13.0589 18.5443 13.0043 18.5726 13L18.5726 13Z" fill="#0D0F2C"/>
</svg>
