<svg width="132" height="48" viewBox="0 0 132 48" fill="none" xmlns="http://www.w3.org/2000/svg">
<g clip-path="url(#clip0_38_18101)">
<mask id="mask0_38_18101" style="mask-type:luminance" maskUnits="userSpaceOnUse" x="16" y="13" width="100" height="22">
<path d="M115.537 13.582H16V34.4154H115.537V13.582Z" fill="white"/>
</mask>
<g mask="url(#mask0_38_18101)">
<mask id="mask1_38_18101" style="mask-type:luminance" maskUnits="userSpaceOnUse" x="16" y="13" width="100" height="22">
<path d="M115.537 13.5801H16V34.4134H115.537V13.5801Z" fill="white"/>
</mask>
<g mask="url(#mask1_38_18101)">
<path d="M84.1047 13.5801C77.6699 13.5801 73.3988 18.1601 73.3988 23.9901C73.3988 30.1542 77.7277 34.3916 84.1047 34.3916C90.359 34.3916 94.7882 29.9637 94.7882 23.9852C94.7882 18.0079 90.359 13.5801 84.1047 13.5801ZM47.4702 13.5948C45.4261 13.5948 42.8396 14.2685 40.9366 15.766C38.6664 17.553 36.9092 20.3489 36.9092 24.1102C36.9092 27.3535 38.0074 29.9656 39.9886 31.7349C41.928 33.4675 44.6712 34.4134 48.0728 34.4134C50.8109 34.4134 54.1181 33.4245 55.5365 32.5852C56.0328 32.2917 56.1887 32.1656 56.0601 31.6859L55.1742 29.2854C55.0715 28.8917 54.6152 28.7909 54.2445 28.9672C53.6218 29.2601 53.1568 29.4906 52.5255 29.7133C51.2992 30.1471 50.0305 30.443 48.8227 30.443C46.2798 30.443 44.8337 29.7816 43.7265 28.5611C43.0231 27.786 42.611 26.8036 42.4831 25.6685H56.5158C57.0262 25.6685 57.2537 25.3308 57.2537 24.7597V23.7919C57.2537 23.3204 57.2315 22.5803 57.1897 22.1376C56.9314 19.4337 55.8919 17.2583 54.1575 15.7843C52.4867 14.3621 50.2435 13.5948 47.4702 13.5948ZM70.3484 13.6141C66.2965 13.6141 63.8219 14.5035 62.2342 16.4626C61.0178 17.9648 60.7978 19.6452 60.7992 23.2403V33.1074C60.8553 33.8106 61.151 34.1393 61.8376 34.1393H65.0433C65.7849 34.1393 66.0878 33.7693 66.0878 33.1074V23.0563C66.0878 20.792 66.1167 19.5284 66.9488 18.6738C67.6645 17.9389 68.6246 17.4581 70.6385 17.4581C71.0376 17.4581 71.9942 17.5589 72.3278 17.5978C72.4542 17.6125 72.5569 17.622 72.6111 17.622C72.9585 17.622 73.0791 17.5011 73.1906 17.0785L73.6715 14.8165C73.7603 14.3527 73.6863 13.992 73.2035 13.8824C72.4694 13.7162 71.3006 13.6141 70.3484 13.6141ZM17.1815 13.8829C16.8329 13.8829 16.5823 14.1488 16.7258 14.5979C17.681 17.5842 20.1038 21.1298 22.616 24.0401C19.4146 26.8001 17.1759 30.4711 16.0525 33.4208C15.8869 33.8547 16.1437 34.1382 16.3963 34.1382H20.174C20.7178 34.1382 20.9672 33.9531 21.2166 33.4245C22.2377 31.2656 23.7542 28.7744 25.7428 26.754C27.5658 28.4337 29.161 30.988 30.1833 33.4245C30.4697 34.0981 30.801 34.1382 31.229 34.1382H35.3479C36.1363 34.1382 36.206 33.7294 36.0643 33.3727C34.4933 29.4099 31.1509 25.3649 29.2657 23.6563C30.992 21.8929 34.1212 18.4871 35.4885 14.5979C35.6899 14.0256 35.3178 13.8829 35.0093 13.8829H31.5603C31.1421 13.8829 30.8626 14.0227 30.5535 14.5979C28.696 17.9502 27.0238 19.927 26.3039 20.6395C25.1694 19.3506 23.6778 17.032 22.5864 14.5979C22.3493 14.0698 22.0986 13.8829 21.6188 13.8829H17.1815ZM96.5951 13.8829C96.2479 13.8829 95.9965 14.1488 96.1396 14.5979C97.0944 17.5842 99.5167 21.1298 102.03 24.0401C98.8292 26.8001 96.5903 30.4711 95.4667 33.4208C95.3014 33.8547 95.5597 34.1382 95.8111 34.1382H99.5882C100.132 34.1382 100.381 33.9531 100.63 33.4245C101.651 31.2656 103.167 28.7744 105.157 26.754C106.981 28.4337 108.576 30.988 109.597 33.4245C109.885 34.0981 110.216 34.1382 110.643 34.1382H114.762C115.549 34.1382 115.62 33.7294 115.478 33.3727C113.906 29.4099 110.564 25.3649 108.681 23.6563C110.406 21.8929 113.536 18.4871 114.903 14.5979C115.105 14.0256 114.733 13.8829 114.423 13.8829H110.976C110.557 13.8829 110.276 14.0227 109.967 14.5979C108.11 17.9502 106.438 19.927 105.719 20.6395C104.583 19.3506 103.092 17.032 101.999 14.5979C101.763 14.0698 101.511 13.8829 101.033 13.8829H96.5951ZM84.1076 17.3909C87.8542 17.3909 89.266 20.4916 89.266 23.9865C89.266 27.4826 87.8542 30.5854 84.1076 30.5849C80.3601 30.5849 78.9165 27.4826 78.9165 23.9865C78.9165 20.4922 80.3601 17.3909 84.1076 17.3909ZM47.6458 17.4086C50.4487 17.4086 52.161 19.2303 52.161 21.9343V22.0569H42.4749C42.579 21.3845 42.7799 20.7455 43.0952 20.139C43.9585 18.4723 45.6055 17.4086 47.6458 17.4086Z" fill="#0D0F2C"/>
</g>
</g>
</g>
<defs>
<clipPath id="clip0_38_18101">
<rect width="100" height="20.8333" fill="white" transform="translate(16 13.584)"/>
</clipPath>
</defs>
</svg>
