<svg width="132" height="48" viewBox="0 0 132 48" fill="none" xmlns="http://www.w3.org/2000/svg">
<g clip-path="url(#clip0_38_18084)">
<mask id="mask0_38_18084" style="mask-type:luminance" maskUnits="userSpaceOnUse" x="24" y="14" width="84" height="20">
<path d="M107.963 14H24V33.0909H107.963V14Z" fill="white"/>
</mask>
<g mask="url(#mask0_38_18084)">
<path d="M41.6081 32.8129H26.5961C25.5429 32.8129 24.6018 32.1841 24.1988 31.211C23.7957 30.2379 24.0166 29.1278 24.7614 28.3832L35.1596 17.985H27.707C25.6597 17.985 24 16.3253 24 14.278H37.8443C38.8975 14.278 39.8385 14.9067 40.2416 15.8797C40.6447 16.8528 40.4241 17.9627 39.6793 18.7077L29.2811 29.1059H37.9011C39.9484 29.1059 41.6081 30.7656 41.6081 32.8129ZM107.963 21.2286C107.963 17.2427 104.72 14 100.734 14C98.6023 14 96.6834 14.9284 95.3592 16.4015C94.035 14.9284 92.1161 14 89.9841 14C85.9982 14 82.7556 17.2427 82.7556 21.2286V32.8129C84.8029 32.8129 86.4626 31.1532 86.4626 29.1059V21.2286C86.4626 19.2868 88.0424 17.707 89.9841 17.707C91.9259 17.707 93.5057 19.2868 93.5057 21.2286V29.1059C93.5057 31.1532 95.1654 32.8129 97.2127 32.8129V21.2286C97.2127 19.2868 98.7925 17.707 100.734 17.707C102.676 17.707 104.256 19.2868 104.256 21.2286V29.1059C104.256 31.1532 105.916 32.8129 107.963 32.8129V21.2286ZM80.9021 23.5455C80.9021 28.8173 76.6284 33.0909 71.3567 33.0909C66.0847 33.0909 61.8112 28.8173 61.8112 23.5455C61.8112 18.2736 66.0847 14 71.3567 14C76.6284 14 80.9021 18.2736 80.9021 23.5455ZM77.1951 23.5455C77.1951 20.321 74.5811 17.707 71.3567 17.707C68.132 17.707 65.5182 20.321 65.5182 23.5455C65.5182 26.77 68.132 29.3839 71.3567 29.3839C74.5811 29.3839 77.1951 26.77 77.1951 23.5455ZM60.3283 23.5455C60.3283 28.8173 56.0546 33.0909 50.7829 33.0909C45.5111 33.0909 41.2374 28.8173 41.2374 23.5455C41.2374 18.2736 45.5111 14 50.7829 14C56.0546 14 60.3283 18.2736 60.3283 23.5455ZM56.6214 23.5455C56.6214 20.321 54.0073 17.707 50.7829 17.707C47.5584 17.707 44.9444 20.321 44.9444 23.5455C44.9444 26.77 47.5584 29.3839 50.7829 29.3839C54.0073 29.3839 56.6214 26.77 56.6214 23.5455Z" fill="#0D0F2C"/>
</g>
</g>
<defs>
<clipPath id="clip0_38_18084">
<rect width="84" height="19.0909" fill="white" transform="translate(24 14)"/>
</clipPath>
</defs>
</svg>
